<?xml version="1.0" encoding="UTF-8"?>
<svg id="Camada_2" data-name="Camada 2" xmlns="http://www.w3.org/2000/svg" viewBox="0 0 634.99 615.12">
  <defs>
    <style>
      .cls-1 {
        fill: #32ce21;
      }
    </style>
  </defs>
  <g id="Camada_4" data-name="Camada 4">
    <g>
      <path class="cls-1" d="M350.66,547.62c-.57,22.46,3.58,43.11,20.19,60.4-39.56,8.71-78.38,9.38-117.13,2.1-69.88-13.13-129.28-45.85-176.23-99.37C-24.65,394.34-19.51,237.13,56.12,131.1,148.47,1.63,308.58-29.39,432.38,26.76c139.06,63.06,194.19,203.45,180.29,312.18-4.01-1.07-7.88-2.59-11.87-3.06-7.71-.91-14.19-1.7-19.16-9.91-5.07-8.38-14.39-13.23-24.93-13.74-3.57-.17-5-1.39-5.32-5.34-1.27-15.75-1.74-31.73-4.99-47.09-3.5-16.51-8.99-32.73-15.05-48.52-8.09-21.09-20.39-40-34.58-57.51-17.31-21.36-37.76-39.27-61.17-53.81-16.92-10.51-34.87-18.78-53.81-24.75-18.76-5.92-37.95-9.6-57.7-10.93-20.94-1.41-41.62-.14-62.12,3.62-19.19,3.52-37.68,9.47-55.5,17.63-27.74,12.7-52.33,29.87-73.5,51.7-27.67,28.54-47.58,61.9-59.07,100.06-6.81,22.61-10.3,45.82-10.26,69.41,.05,30.57,5.37,60.22,16.55,88.81,13.95,35.67,34.93,66.51,63.23,92.2,30.89,28.05,66.68,47.06,107.38,56.77,30.33,7.23,60.88,8.57,91.71,4.2,2.45-.35,4.9-.64,8.14-1.07Z"/>
      <path class="cls-1" d="M339.16,235.83c0,26.66,.03,53.33-.02,79.99-.01,7.57-.92,14.92-5.37,21.44-6.93,10.16-17.03,14.24-28.71,14.3-37.82,.21-75.65,.29-113.47-.02-16.85-.14-27.58-8.27-32.46-23.03-5.03-15.2,3.99-33.56,19.24-38.33,4.51-1.41,9.43-2.01,14.17-2.05,25.49-.2,50.99-.08,76.48-.11,6.43,0,6.71-.27,6.71-6.83,.02-42.33,0-84.66,.04-126.98,.02-17.16,7.77-28.95,23.15-33.28,19.19-5.4,37.37,7.21,39.63,25.94,.5,4.12,.6,8.31,.61,12.47,.05,25.5,.03,50.99,.03,76.49h-.03Z"/>
      <path class="cls-1" d="M581.36,383.39c0-8.01-.11-15.66,.14-23.3,.03-.98,1.91-2.72,2.94-2.72,14.53-.05,27.11,5.06,37.07,15.64,9.43,10.02,13.46,22.11,13.39,35.99-.24,49.01-.51,98.02,.09,147.02,.3,24.67-15.85,45.53-38.96,50.65-4.02,.89-8.25,1.16-12.38,1.16-53.34,.07-106.67,.09-160.01,.01-23.81-.03-41.94-13.26-48.92-35.93-1.49-4.85-2.02-10.17-2.04-15.27-.15-49.34-.17-98.68-.06-148.02,.07-27.8,19.3-48.82,46.52-51.27,7.07-.64,7.27-.46,7.28,6.67,0,5.33-.08,10.67,.04,16,.06,2.77-1.05,3.65-3.79,3.89-15.66,1.37-23.44,9.76-23.46,25.38-.06,49.01-.06,98.01,0,147.02,.02,15.72,9.31,24.88,24.88,24.89,53,.01,106.01-.29,159,.21,14.24,.13,25.5-10.73,25.23-24.12-.57-27.48,0-54.99,0-82.49,0-21.83-.73-43.67-.02-65.47,.49-15.05-10.11-25.87-24.29-25.51-.64,.02-1.28-.2-2.66-.42Z"/>
      <path class="cls-1" d="M468.79,363.23c.48,6.75-.52,14.01,3.14,21.26,3.54,7.02-.37,15.75-6.98,20.01-6.56,4.23-15.96,3.4-21.71-1.9-5.37-4.96-6.71-13.72-3.57-20.7,1.18-2.62,1.96-5.63,2.06-8.49,.28-7.97-.03-15.96,.16-23.94,.16-6.57,4.01-11.92,9.22-13.49,5.68-1.71,11.69-.28,14.69,4.4,1.69,2.65,2.51,6.1,2.87,9.29,.47,4.27,.12,8.63,.12,13.55Z"/>
      <path class="cls-1" d="M517.41,362.18c.24,8.09-.36,15.31,2.84,22.62,3.4,7.76-.41,15.87-7.44,20.08-6.33,3.78-16,2.62-21.27-2.55-5.33-5.24-6.2-13.79-2.53-21.25,1.06-2.14,1.59-4.73,1.65-7.14,.21-7.98,.02-15.97,.11-23.96,.11-9.12,5.28-14.69,13.42-14.66,7.54,.02,12.9,5.89,13.18,14.59,.14,4.32,.02,8.65,.02,12.27Z"/>
      <path class="cls-1" d="M565.55,362.31c.29,7.15-.58,14.72,3.26,22.27,3.57,7.04-.48,15.62-7.51,20.1-6.27,4-15.02,3.1-20.64-2.1-5.87-5.44-7.14-13.65-3.69-20.96,1.15-2.43,1.76-5.32,1.84-8.02,.23-7.81-.13-15.64,.11-23.45,.32-10.19,7.58-16.36,16.55-14.42,5.72,1.23,9.4,5.44,9.93,11.57,.21,2.48,.13,4.99,.16,7.48,.02,2.33,0,4.66,0,7.54Z"/>
      <path class="cls-1" d="M584.18,494.03c-.11,9.72-8.39,17.95-17.87,17.76-9.31-.19-17.33-8.53-17.21-17.9,.12-9.53,8.63-17.75,18.13-17.52,8.88,.21,17.05,8.73,16.95,17.66Z"/>
      <path class="cls-1" d="M458.52,494.13c-.05,9.35-8.22,17.62-17.42,17.62-9.46,0-17.68-8.41-17.58-18,.1-9.21,8.49-17.45,17.72-17.38,9.15,.07,17.32,8.48,17.27,17.76Z"/>
      <path class="cls-1" d="M566.69,527.03c9.53,.02,17.55,7.99,17.5,17.37-.06,9.71-8.19,17.8-17.8,17.69-8.89-.1-17.29-8.46-17.32-17.24-.04-9.75,7.96-17.83,17.62-17.81Z"/>
      <path class="cls-1" d="M503.88,527.05c9.28-.03,17.58,8.19,17.6,17.42,.01,9.31-8.09,17.49-17.43,17.6-9.47,.11-17.6-7.86-17.62-17.26-.02-10.07,7.51-17.72,17.46-17.75Z"/>
      <path class="cls-1" d="M566.57,461.03c-9.79-.13-17.48-7.82-17.38-17.39,.1-9.5,8.09-17.61,17.33-17.61,9.79,0,17.64,7.93,17.63,17.8-.01,9.48-8.04,17.33-17.59,17.2Z"/>
      <path class="cls-1" d="M486.42,494.06c.02-9.22,8.25-17.61,17.35-17.68,9.24-.07,17.88,8.69,17.73,17.97-.16,9.19-8.53,17.4-17.76,17.41-9.16,.01-17.34-8.34-17.32-17.7Z"/>
      <path class="cls-1" d="M440.98,527.04c9.34-.02,17.6,8.08,17.64,17.3,.04,9.62-8.17,17.81-17.78,17.72-9.41-.09-17.38-8.19-17.33-17.61,.06-9.46,8.02-17.39,17.46-17.41Z"/>
    </g>
  </g>
</svg>