<?xml version="1.0" encoding="UTF-8"?>
<svg id="Camada_2" data-name="Camada 2" xmlns="http://www.w3.org/2000/svg" viewBox="0 0 569.25 747.98">
  <defs>
    <style>
      .cls-1 {
        fill: #32ce21;
      }
    </style>
  </defs>
  <g id="Camada_2-2" data-name="Camada 2">
    <g>
      <path class="cls-1" d="M159.62,428.97c.16-2.77,.38-4.72,.38-6.67,.02-23.67,.02-47.34,.01-71,0-4.54-6.95-14.46-11.2-15.61-1.05-.28-2.55,.37-3.61,1-16.04,9.54-32,19.2-48.07,28.67-2.91,1.71-3.76,3.79-3.33,6.98,3.66,27.32-17.6,52.35-46.49,52.51-25.27,.14-44.97-18.46-47.08-42.7-1.67-19.18,5.65-34.46,21.88-44.49,16.77-10.36,34.19-9.95,50.95,.65,3.43,2.17,5.86,2.45,9.38,.27,15.17-9.37,30.47-18.51,45.83-27.55,3.29-1.94,4.05-3.81,2.98-7.62-13.87-49.12,19.8-97.28,70.51-101.12,43.65-3.31,79.97,29.85,84.05,68.75,.38,3.61,1.94,5.09,5.61,5.54,30.73,3.75,61.44,7.68,92.15,11.55,11.39,1.43,22.77,2.99,34.19,4.07,1.72,.16,4.34-1.52,5.38-3.11,10.91-16.58,26.09-24.14,45.88-22.45,31.46,2.69,51.43,38.1,37.65,66.7-9.35,19.41-26.77,27.97-44.03,27.4-21.38-.71-37.71-13.55-43.95-33.27-1.12-3.52-2.99-4.66-6.32-5.06-25.78-3.09-51.55-6.26-77.31-9.46-15.69-1.95-31.39-3.85-47.03-6.12-4.24-.62-5.94,.93-7.35,4.54-4.63,11.86-11.88,21.96-21.67,30.07-3.3,2.73-4.68,5.66-4.36,9.88,.32,4.25,.07,8.54,.07,13.5,2.55-.46,4.14-.7,5.7-1.05,14.31-3.12,27.53-.65,39.28,8.15,3.04,2.27,4.92,1.96,7.8-.17,25.27-18.73,61-8.11,72.23,21.41,1.14,3,2.06,4.65,6.02,3.6,32.34-8.59,60.57,11.94,61.09,45.53,.66,43.49,.5,87.01-.25,130.5-.39,23-5.93,45.24-16.32,65.93-10.75,21.43-16.43,43.84-15.35,67.91,.35,7.82,.11,15.67,.04,23.5-.11,11.73-6.19,17.72-18.03,17.83-5.67,.05-11.33,0-17,0-66.66,0-133.33,0-199.99,0-14.44,0-19.67-5.47-19.98-19.96-.28-12.97,.07-26.11-1.97-38.83-3.35-20.89-16.68-36.19-31.67-50.18-11.17-10.43-21.39-21.85-25.62-36.91-2.54-9.05-4.45-18.58-4.61-27.93-.55-32.66-.33-65.33-.18-98,.1-19.95,8.23-35.49,26.48-44.69,9.99-5.03,20.65-6.12,31.61-3.66,1.59,.36,3.19,.66,5.62,1.17Zm31.04-3.7c0,9.5,0,19,0,28.5,0,27.67,.05,55.34-.03,83.01-.03,11.9-10.45,19.3-21.09,15.19-5.99-2.32-9.46-7.81-9.49-15.58-.08-20.67,.06-41.34-.1-62.01-.08-10-7.58-17.42-16.93-17.3-9.18,.12-16.34,7.51-16.36,17.24-.06,33.84-.06,67.68,.01,101.51,.02,8.12,1.44,16.21,6.17,22.83,5.19,7.27,10.93,14.34,17.42,20.43,26.66,25,41.75,54.9,40.32,92.06-.19,4.9,1.72,5.72,6.05,5.71,59.67-.12,119.34-.06,179.01-.1,9.62,0,8.88,1.24,8.58-8.41-.86-28.15,4.25-54.9,17.02-80.2,9.5-18.83,14.79-38.95,14.92-60.1,.27-42,.15-84.01,.1-126.02-.01-9.48-7.09-16.76-16.09-16.99-9.25-.24-16.76,6.89-17.2,16.5-.19,4.16-.06,8.33-.07,12.5-.01,17,.13,34.01-.08,51.01-.15,12-10.86,19.28-21.31,14.67-6.73-2.97-9.29-8.54-9.27-15.71,.06-31.17,.06-62.34,0-93.51-.02-10.09-7.18-17.47-16.63-17.48-9.42-.02-16.57,7.38-16.78,17.42-.07,3.17-.02,6.33-.02,9.5,0,17.67,.1,35.34-.05,53.01-.1,11.75-10.29,18.95-20.8,14.99-6.15-2.32-9.69-7.8-9.71-15.4-.05-20.67,.05-41.34-.06-62.01-.05-10.68-8.03-18.22-18.15-17.47-8.79,.64-15.25,8.08-15.28,17.86-.07,20.67,.06,41.34-.06,62.01-.07,11.69-10.22,18.91-20.81,15.05-6.19-2.26-9.72-7.88-9.72-15.9-.03-36.67-.02-73.34-.02-110.02,0-15.67-.02-31.34,0-47.01,0-6.87-2.55-12.44-8.58-15.89-11.48-6.55-24.8,1.51-24.84,15.09-.1,37.01-.03,74.01-.04,111.02Zm61.73-127.9c9.23-15.89,1.2-41.82-16.51-55.32-18.28-13.94-45.77-11.83-62.64,4.79-13.49,13.3-19.21,39.2-10.63,50.33,8.71-19.58,23.45-30.85,44.92-30.82,21.41,.03,35.91,11.63,44.86,31.01Zm211.6-.4c-9.22-.07-16.69,7.1-16.85,16.17-.16,9.14,7.57,17.02,16.7,17.01,8.99,0,16.43-7.5,16.46-16.6,.04-9.23-7.13-16.52-16.31-16.58ZM30.6,377.58c0,9.13,7.34,16.66,16.32,16.75,8.91,.09,16.58-7.5,16.65-16.48,.07-9.49-7.22-16.89-16.61-16.84-9.15,.04-16.36,7.35-16.35,16.57Z"/>
      <path class="cls-1" d="M414.03,50.22c-1.63-10.11-.59-19.3,4.11-27.68,2.25-4.01,5.29-7.65,8.46-11,1.04-1.1,3.6-.76,5.46-1.07-.6,1.67-.76,3.77-1.88,4.95-12.63,13.39-14.96,30.06-6.07,44.84,8.56,14.23,25.8,20.84,41.56,15.92,15.4-4.81,26.44-20.45,25.49-36.13-1.01-16.66-13.43-31.26-29.69-33.7-5.59-.84-11.52,.63-17.3,.82-1.71,.06-3.45-.66-5.17-1.02,1.24-1.42,2.21-3.61,3.76-4.14,22.59-7.76,48.88,7.81,52.88,31.37,.9,5.33,.78,10.83,1.16,16.86,5.02,.67,10.62,1.15,16.1,2.2,30.46,5.82,52.88,30.56,55.98,61.6,4.06,40.56-26.65,75.64-67.33,76.97-8.65,.28-17.29,1-25.95,1.12-2.04,.03-4.11-1.55-6.16-2.38,2.05-1,4.04-2.71,6.15-2.89,8.29-.7,16.62-1.04,24.94-1.28,35.05-1,63.1-29.41,63.44-64.36,.32-33.31-26.17-61.96-59.51-64.37-1-.07-2.01-.12-2.97-.37-4.82-1.22-7.51,.17-10.13,4.97-7.79,14.28-20.2,21.76-36.7,21.63-16.5-.12-28.69-7.83-36.41-22.16-2.22-4.12-4.52-5.2-8.9-4.83-29.42,2.53-50.28,16.78-59.98,45.01-12.08,35.13,9.62,73.63,45.72,82.43,10.55,2.57,12.9,6.26,11.16,17.22-.44,2.75-.52,5.56-.85,9.37,10.23-2.33,18.94-5.71,23.51-14.95,2.95-5.96,6.99-8.4,13.42-7.99,5.15,.33,10.34,0,15.49,.35,1.26,.08,2.42,1.62,3.63,2.48-1.2,.95-2.36,2.65-3.6,2.72-5.32,.28-10.66,.2-15.99,0-3.55-.13-5.8,.96-7.52,4.34-6.3,12.39-17.73,16.84-30.51,18.93-3.56,.58-4.94-1.18-4.49-4.61,.56-4.29,1.12-8.58,1.68-12.86,.82-6.27-.38-7.93-6.56-9.51-25.41-6.51-42.56-22.23-50.6-47.09-13.14-40.64,13.65-83.79,55.63-90.26,4.57-.71,9.21-.95,14.52-1.48Z"/>
      <path class="cls-1" d="M423.21,143.27c-.51-1.41-1.81-3.11-1.41-4.2,4.11-11.39,8.34-22.74,12.87-33.97,1.45-3.59,5.32-3.58,6.76,0,4.5,11.24,8.7,22.61,12.8,34,.32,.9-1,2.39-1.55,3.61-1.18-.62-2.67-.98-3.46-1.92-1.62-1.92-2.61-5.67-4.32-5.97-4.66-.8-9.6-.52-14.34,.07-1.19,.15-2.02,3.05-3.07,4.65-.84,1.28-1.77,2.5-2.65,3.74-.54-.01-1.07-.02-1.61-.03Zm21.13-14.82c-2.02-5.31-3.83-10.06-5.64-14.8-.47,.03-.93,.05-1.4,.08-1.78,4.77-3.55,9.55-5.48,14.73h12.53Z"/>
      <path class="cls-1" d="M479.2,143.95c-3.85-1.76-7.85-3.25-11.45-5.43-1.21-.73-1.36-3.19-2-4.87,1.72,.14,3.79-.28,5.1,.53,3.96,2.46,7.95,4.73,12.53,2.41,1.83-.93,3.85-3.13,4.1-4.97,.2-1.49-1.78-3.92-3.41-4.87-3.27-1.91-6.94-3.17-10.5-4.57-4.19-1.66-6.37-4.59-6.33-9.15,.05-4.78,2.61-7.79,6.82-9.46,5.78-2.29,11.18-.91,16.04,2.48,1,.7,1.1,2.7,1.62,4.09-1.46,.21-3.01,.83-4.35,.53-2.86-.63-5.67-2.56-8.4-2.39-2.12,.13-4.09,2.63-6.13,4.08,1.43,1.74,2.58,3.9,4.36,5.11,2.15,1.46,4.87,2.08,7.31,3.13,6.46,2.78,9.78,7.46,8.81,12.37-1.2,6.09-6.61,10.04-14.13,10.97Z"/>
      <path class="cls-1" d="M391.49,122.74c0-4.83,.09-9.67-.04-14.5-.1-3.91,1.29-5.97,5.53-5.71,3.49,.21,7.02-.21,10.48,.17,1.45,.16,2.75,1.67,4.11,2.56-1.28,.92-2.47,2.07-3.89,2.68-.99,.42-2.3,.09-3.46,.1-6.82,.02-9.05,2.97-6.91,9.6,.33,1.03,1.97,2.1,3.15,2.31,2.27,.41,4.7-.05,6.95,.39,1.16,.22,2.09,1.6,3.13,2.46-1.06,.84-2.02,2.15-3.21,2.42-1.91,.44-3.98,.33-5.97,.21-4.7-.28-4.39,2.94-4.32,6.01,.07,2.95-.55,6.36,4.27,6.06,2.49-.15,5.03-.2,7.48,.14,1.01,.14,1.87,1.43,2.79,2.2-.9,1-1.75,2.82-2.71,2.88-4.81,.29-9.68,.41-14.46-.08-1.12-.12-2.69-2.82-2.8-4.42-.36-5.14-.13-10.32-.14-15.49Z"/>
      <path class="cls-1" d="M515.61,117.13c3.01-4.61,5.27-8.46,7.97-11.99,.86-1.13,2.86-1.4,4.33-2.06,.1,1.69,.39,3.4,.21,5.06-.09,.89-.91,1.77-1.55,2.51-6.66,7.69-9.46,16.54-8.22,26.66,.1,.82,.3,1.84-.07,2.45-.7,1.15-1.77,2.07-2.69,3.08-.86-1.02-2.34-1.96-2.47-3.06-.36-2.95-.39-6-.12-8.97,.47-5.08-.89-9.43-4-13.47-2.33-3.02-4.47-6.24-6.22-9.62-.62-1.19,.18-3.11,.34-4.7,1.39,.52,3.33,.62,4.09,1.62,2.8,3.68,5.21,7.65,8.41,12.48Z"/>
      <path class="cls-1" d="M445.82,50.15c7.4-7.02,14.27-13.53,21.14-20.05,.97-.92,1.8-2.17,2.95-2.65,1.19-.5,2.69-.27,4.06-.36-.12,1.48,.34,3.5-.46,4.35-3.52,3.77-7.41,7.18-11.15,10.75-4.58,4.37-9.13,8.78-13.71,13.16-2.41,2.3-4.59,2.35-6.64-.55-1.92-2.72-4.22-5.2-5.9-8.05-.64-1.1-.01-2.94,.04-4.44,1.41,.37,3.2,.33,4.15,1.21,1.93,1.76,3.4,4.02,5.52,6.65Z"/>
    </g>
  </g>
</svg>