<?xml version="1.0" encoding="UTF-8"?>
<svg id="Camada_2" data-name="Camada 2" xmlns="http://www.w3.org/2000/svg" viewBox="0 0 612.66 611.7">
  <defs>
    <style>
      .cls-1 {
        fill: #32ce21;
      }
    </style>
  </defs>
  <g id="Camada_3" data-name="Camada 3">
    <g>
      <path class="cls-1" d="M290.87,468.21c-2.91,1.27-4.92,2.05-6.84,3.01-12.38,6.16-24.34,13.46-37.25,18.14-8.09,2.93-12.63,7.51-16.67,14.43-14.43,24.72-37.77,38.8-62.51,50.92-46.23,22.66-94.59,39.89-143.47,55.78-7.33,2.38-13.49,1.28-18.84-3.84-5.28-5.04-6.47-11.4-4.21-18.27,17.14-52.22,35.61-103.9,60.92-152.87,12.73-24.62,29.37-45.44,54.47-58.47,1.19-.62,2.56-1.55,3.09-2.69,7.6-16.5,15.08-33.05,22.57-49.6,.47-1.04,.71-2.18,1.34-4.14-5.98-.67-11.46-1.41-16.96-1.89-24.58-2.14-49.17-4.27-73.76-6.28-13.07-1.07-20.36-13.01-14.77-25.18,18.28-39.81,46.43-70.45,85.43-90.74,28.54-14.85,59.03-21.64,91.13-20.67,6.57,.2,10.55-1.79,14.21-7.39,17.73-27.13,38-52.23,61.51-74.65,40.63-38.75,88.21-64.97,142.41-79.27,27.76-7.32,55.96-12.27,84.66-13.32C542.98,.29,568.65,.18,594.3,0c10.31-.07,17.09,6.57,17.57,16.68,2.37,50.5-.38,100.65-11.58,150.08-17.41,76.86-57.51,139.53-119.25,188.31-13.37,10.56-27.45,20.23-41.48,29.91-4.28,2.95-6.11,5.98-5.99,11.27,.82,36.14-7.53,70.03-26.15,101.14-20.31,33.93-48.94,58.65-84.8,74.99-11.75,5.36-23.39-1.41-24.55-14.19-1.79-19.76-3.07-39.56-4.62-59.35-.78-9.92-1.66-19.84-2.57-30.62ZM563.04,174.84c-3.33-.88-5.24-1.48-7.18-1.88-30.57-6.31-56.65-20.83-78.24-43.27-20.09-20.89-33.1-45.61-38.81-74.11-.68-3.37-.72-7.81-6.5-5.46-18,7.32-36.68,13.28-53.91,22.08-44.93,22.94-79.54,57.76-108.78,98.37-28.57,39.68-51.67,82.57-74.47,125.66-2.45,4.62-1.77,7.22,1.77,10.74,33.61,33.37,67.04,66.93,100.56,100.39,3.95,3.95,7.77,10.07,12.34,10.79,4.54,.71,10.03-3.98,14.97-6.55,43.62-22.7,86.49-46.65,125.84-76.39,47.66-36.02,84.32-80.43,104.83-137.16,2.7-7.48,4.95-15.12,7.58-23.21ZM45.59,566.86c9.17-3.28,17.42-6.07,25.54-9.17,35.22-13.42,70.72-26.24,103.11-45.99,14.84-9.04,25.55-21.7,32.96-37.34,1.65-3.49,1.22-5.75-1.6-8.33-4.88-4.46-9.58-9.16-14.04-14.05-2.78-3.05-4.61-2.55-7.27,.17-11.09,11.33-22.31,22.53-33.61,33.66-8.09,7.97-18.68,8.43-25.67,1.38-7.22-7.28-6.81-17.36,1.26-25.65,7.56-7.77,15.24-15.42,22.96-23.02,4.68-4.61,9.55-9.03,15.04-14.2-6.26-6.1-11.95-10.91-16.71-16.5-3.78-4.44-7.05-4.37-11.88-2-19.66,9.64-32.62,25.5-42.54,44.4-18.79,35.8-32.93,73.55-46.55,111.51-.44,1.21-.51,2.56-1,5.14ZM577.23,34.66c-.72-.25-.9-.36-1.09-.37-33.77-1.23-67.33,.84-100.72,6.01-3.83,.59-3.99,2.49-3.5,5.9,6.47,44.95,47.8,86.6,92.75,93.68,5.41,.85,6.62-.97,7.06-5.63,1.71-17.93,4.25-35.81,5.32-53.77,.9-15.14,.18-30.37,.18-45.82ZM275.66,436.73c-33.69-33.68-66.91-66.89-100.64-100.6-5.13,10.32-10.62,21.14-15.77,32.11-.47,.99,.87,3.36,1.98,4.48,25.88,26.03,51.82,52,77.85,77.87,1.18,1.17,3.86,2.35,5.03,1.79,10.79-5.09,21.4-10.56,31.54-15.66Zm-74.44-224.41c-32.15-7.52-108.97,36.29-118.47,67.69,4.01,.4,7.89,.83,11.78,1.19,20.52,1.87,41.05,3.64,61.55,5.67,4.13,.41,6.02-1.26,7.84-4.68,11.59-21.74,23.4-43.37,35.11-65.05,.82-1.52,1.43-3.15,2.18-4.82Zm197.15,199.44c-1.1,.16-1.75,.1-2.22,.35-22.96,12.35-45.93,24.67-68.77,37.22-1.46,.8-2.83,3.49-2.72,5.2,1.28,19.4,2.82,38.78,4.37,58.16,.39,4.87,1.06,9.71,1.63,14.87,36.72-20.06,67.47-71.15,67.71-115.8Z"/>
      <path class="cls-1" d="M468.71,222.79c0,6.22-.15,12.45,.06,18.67,.14,4.35-1.51,6.71-5.95,5.93-14.15-2.49-19.93,8.41-26.96,16.98-1.21,1.47-1.05,5.02-.2,7.06,4.67,11.07,9.82,21.94,14.62,32.96,.7,1.61,.34,3.68,.46,5.53-1.7,.11-3.46,.56-5.09,.27-11.3-1.99-11.23-2-17.07,7.69-.91,1.51-2.65,3.09-4.25,3.39-.85,.16-2.57-2.16-3.28-3.66-4-8.52-8.08-17.03-11.59-25.75-1.93-4.8-4.67-5.5-8.83-3.47-3.59,1.76-7.2,3.52-10.69,5.47-7.66,4.29-15.15,4.11-22.89-.01-16.37-8.71-16.42-8.62-23.85,7.95-2.46,5.48-4.83,11.01-7.44,16.42-.63,1.31-2.2,3.21-3.1,3.09-1.44-.19-2.68-1.85-3.99-2.9-.14-.11-.18-.35-.28-.53-5.65-9.72-5.64-9.67-17.03-7.68-1.63,.28-3.39-.19-5.08-.31,.15-1.86-.19-3.93,.51-5.55,4.56-10.47,9.05-20.99,14.19-31.17,2.43-4.81,1.59-8.46-1.65-11.95-3.95-4.26-7.73-8.93-12.45-12.14-2.73-1.86-7.22-1.75-10.86-1.51-5.77,.38-7.71-1.56-7.51-7.46,.42-12.23,.29-24.49,.04-36.73-.09-4.54,1.56-6.38,5.94-5.78,5.71,.79,10.12-.51,12.03-6.66,.39-1.26,1.46-2.48,2.52-3.33,8.17-6.55,13.79-14.83,17.93-24.43,3.66-8.48,11.76-9.85,19.85-11.41,5.97-1.15,12.21-2.7,17.4-5.69,9.71-5.58,18.39-5.45,28.32-.25,6.88,3.6,14.93,5.3,22.65,6.86,7.37,1.48,12.81,5.05,15.61,11.74,3.65,8.72,8.65,16.23,16.15,22.02,.47,.36,.97,.8,1.22,1.32,3.47,7.13,8.17,11.89,17.09,10.13,.79-.16,3.17,3.2,3.28,5.03,.41,6.6,.16,13.24,.16,19.86Zm-131.01,24.64c-.23,.58-.46,1.16-.69,1.74,10.13,14.06,24.21,21.52,41.55,21.52,17.33,0,31.4-7.49,42.31-22.66-2.68-.28-4.17-.56-5.67-.58-5.42-.06-10.86,.27-16.24-.16-2.32-.18-4.53-1.84-6.79-2.82,2.34-.87,4.66-2.45,7.01-2.49,14.24-.23,28.49-.12,42.74-.12,5.02,0,10.04-.19,15.05,.05,4.58,.22,6.51-1.31,6.31-6.2-.35-8.41-.42-16.87,.02-25.28,.3-5.77-1.58-7.56-7.42-7.53-48.16,.21-96.32,.12-144.49,.12-3.61,0-7.25,.29-10.83-.06-5.39-.53-7,1.71-6.76,6.92,.37,8.21,.45,16.47-.02,24.67-.35,5.98,1.93,7.51,7.58,7.42,19.26-.28,38.53-.18,57.79,.01,1.93,.02,3.85,1.65,5.77,2.53-1.87,.97-3.71,2.69-5.63,2.78-7.18,.33-14.38,.13-21.58,.13Zm86.68-50.23c-6.51-18.45-29.69-32.24-49.55-30.22-19.45,1.98-39.88,16.76-41.48,30.22h91.04Zm22.27,.33c-.39-1.82-.36-2.48-.66-2.94-.76-1.17-1.48-2.46-2.53-3.33-8.19-6.79-14.26-15.02-18.24-24.95-2.02-5.03-6.4-7.56-11.82-8.01-9.52-.8-18.43-3.26-26.55-8.56-5.55-3.63-11.55-3.39-17.03,.2-7.59,4.97-15.88,7.6-24.8,8.17-7.29,.47-12.02,4.18-14.52,10.73-3.09,8.09-8.07,14.65-14.62,20.22-2.27,1.93-3.93,4.59-6.21,7.34,12.16,2.96,14.52,2.01,19.62-6.6,1.63-2.75,3.42-5.45,5.49-7.88,26.99-31.66,75.3-26.08,94.8,10.82,1,1.89,2.87,4.25,4.67,4.58,3.82,.7,7.87,.21,12.4,.21Zm-6.34,50.21c-6.08-.74-11.57-.89-16.92,6.32-22.48,30.29-68.18,29.58-90.61-.71-4.77-6.44-9.24-7.67-15.77-5.16,5.02,8.21,10.24,16.56,15.26,25.02,2.97,5.01,7.53,7.07,12.96,7.44,8.35,.57,16.17,2.58,23.18,7.34,6.7,4.55,13.46,4.61,20.19,.05,7-4.75,14.8-6.83,23.16-7.38,5.68-.37,10.28-2.63,13.33-7.88,4.84-8.35,10.01-16.51,15.23-25.05Zm-107.9,63.82c3.91-8.68,7.44-16.52,10.62-23.58-6.21-3.91-11.63-7.32-17.53-11.04-3.7,8.23-7.59,16.9-11.78,26.24,4.98-.5,9.02-2.11,11.74-.85,2.76,1.28,4.22,5.37,6.96,9.24Zm110.15-7.56c.13-.62,.27-1.23,.4-1.85-3.89-8.58-7.77-17.17-11.41-25.19-6.07,3.8-11.5,7.2-17.55,10.98,3.26,7.2,6.8,15.01,10.34,22.81,.5,.23,1.01,.46,1.51,.69,2.45-9.48,8.01-11.96,16.7-7.45Z"/>
      <path class="cls-1" d="M404.79,226.23c-2.43-1.22-5.41-1.93-7.14-3.8-1.62-1.76-3.34-5.6-2.49-6.98,1.38-2.25,4.72-4.23,7.4-4.49,2.51-.24,5.24,1.91,7.88,3.01-1.12,1.13-2.08,2.91-3.39,3.21-1.58,.36-3.45-.53-5.19-.88-.17,.49-.34,.98-.51,1.47,1.98,1.07,4.61,1.67,5.79,3.32,1.66,2.32,3.8,6.14,2.93,7.98-1.14,2.4-5.02,4.75-7.75,4.78-2.83,.04-5.72-2.68-8.49-4.33-.21-.13,.04-1.86,.42-2.01,1.18-.49,2.58-.93,3.79-.74,2.05,.32,4.02,1.14,6.02,1.75,.25-.76,.49-1.52,.74-2.28Z"/>
      <path class="cls-1" d="M326.59,227.24c-1.7,2.14-2.71,3.9-4.18,5.09-1.02,.82-2.67,.86-4.04,1.25-.18-1.47-.73-3.01-.44-4.38,.26-1.27,1.25-2.51,2.19-3.51,2.47-2.62,2.36-4.92,.28-7.91-1.18-1.69-1.03-4.32-1.47-6.52,2.05,1.05,4.11,2.1,6.15,3.17,.49,.26,.93,.62,1.26,.84,.42-.06,.64-.04,.81-.13,2.35-1.23,4.7-2.47,7.05-3.7-.7,2.46-1.62,4.89-2.05,7.4-.32,1.87-.42,3.97,.13,5.74,.57,1.84,2.37,3.28,2.97,5.12,.38,1.16-.46,2.72-.75,4.1-1.22-.37-2.72-.41-3.59-1.17-1.45-1.28-2.48-3.03-4.31-5.37Z"/>
      <path class="cls-1" d="M372.97,220.12c0-2.2-.29-4.46,.13-6.58,.19-1.01,1.72-1.75,2.64-2.62,.83,.93,2.29,1.8,2.39,2.81,.34,3.37-.14,6.85,.39,10.17,.25,1.6,2.05,2.96,3.14,4.43,1.29-1.48,3.34-2.79,3.69-4.46,.64-3.08,.06-6.4,.46-9.56,.16-1.22,1.62-2.27,2.48-3.39,1,1.01,2.78,1.97,2.86,3.05,.31,4.18,.46,8.44-.07,12.58-.63,4.93-5.06,8-9.91,7.62-4.84-.38-8.06-3.96-8.29-9.25-.07-1.6-.01-3.2-.01-4.8,.03,0,.06,0,.09,0Z"/>
      <path class="cls-1" d="M305.97,217.35q8.43,4.12,.75,9.96c1.22,.54,2.29,.85,3.19,1.43,1.44,.93,2.77,2.04,4.14,3.07-1.64,.8-3.24,2.16-4.93,2.29-7.47,.6-8.36-.34-8.39-7.63,0-2.4,0-4.79,0-7.19,0-8.6,.81-9.45,9.15-8.48,1.47,.17,2.8,1.54,4.2,2.35-1.23,.99-2.39,2.11-3.73,2.91-.91,.54-2.09,.64-4.37,1.28Z"/>
      <path class="cls-1" d="M335.11,223.41c1.1-9.29,9.13-15.19,16.86-12.17,1.5,.59,2.41,2.68,3.59,4.07-1.63,.49-3.26,.97-4.88,1.47-2.61,.8-5.75,1.02-7.62,2.67-1.03,.91-.77,5.4,.38,6.21,1.96,1.4,5.06,1.23,7.7,1.61,1.59,.23,3.2,.27,4.8,.39-.72,1.63-1.23,4.5-2.19,4.67-3.71,.62-8.19,1.63-11.19,.11-3.19-1.61-5.02-5.91-7.44-9.03Z"/>
      <path class="cls-1" d="M447.91,217.08c3.39,2.34,5.34,3.68,7.29,5.02-1.98,1.57-3.96,3.14-6.73,5.33,1.78,.52,3.36,.77,4.72,1.45,1.09,.55,1.92,1.63,2.86,2.47-.94,.91-1.73,2.31-2.85,2.67-7.12,2.28-10.41-.25-10.43-7.76,0-2.81,0-5.61,.02-8.42,.06-6.27,6.44-9.95,11.76-6.7,.71,.43,1.53,1.78,1.32,2.35-.35,.98-1.34,2.01-2.31,2.41-1.44,.61-3.1,.69-5.65,1.19Z"/>
      <path class="cls-1" d="M432.04,220.59c.86-2.57,1.5-5.24,2.68-7.65,.47-.97,2.14-1.35,3.26-2,.59,1.11,1.9,2.4,1.66,3.28-1.62,5.97-3.21,12-5.55,17.7-1.23,3.01-4.33,3.44-5.8-.06-2.31-5.52-4.15-11.26-5.85-17.01-.32-1.07,.98-2.61,1.52-3.94,1.21,.8,2.87,1.34,3.53,2.46,1.28,2.19,1.99,4.7,2.93,7.08,.53,.04,1.07,.08,1.6,.12Z"/>
      <path class="cls-1" d="M359.63,222.25c0-2.79-.21-5.6,.11-8.36,.12-1.05,1.47-1.96,2.27-2.94,.97,1,2.62,1.89,2.78,3,.41,2.93,.23,5.96,.18,8.95-.05,2.93-.08,5.64,3.91,6.12,.78,.09,2.11,1.87,1.92,2.4-.4,1.07-1.52,2.31-2.6,2.62-6.02,1.72-8.47-.19-8.59-6.41-.03-1.79,0-3.59,0-5.38,0,0,.01,0,.02,0Z"/>
      <path class="cls-1" d="M419.13,222.5c0,2.79,.27,5.62-.13,8.36-.17,1.16-1.75,2.12-2.69,3.17-.82-.97-2.3-1.91-2.34-2.9-.22-5.78-.2-11.57,.03-17.34,.04-.98,1.53-1.89,2.35-2.84,.91,1.06,2.45,2.03,2.61,3.19,.39,2.74,.12,5.57,.12,8.36,.02,0,.03,0,.05,0Z"/>
    </g>
  </g>
</svg>