<?xml version="1.0" encoding="UTF-8"?>
<svg id="Camada_2" data-name="Camada 2" xmlns="http://www.w3.org/2000/svg" viewBox="0 0 567.27 679.34">
  <defs>
    <style>
      .cls-1 {
        fill: #32ce21;
      }
    </style>
  </defs>
  <g id="Camada_1-2" data-name="Camada 1">
    <g>
      <path class="cls-1" d="M283.76,356.66c29.34,0,58.67,.15,88.01-.12,5.51-.05,11.08-1.44,16.5-2.71,6.22-1.46,12.67-2.73,18.38-5.42,8.59-4.05,17.14-8.59,24.8-14.16,12.34-8.97,22.12-20.52,29.15-34.17,5.07-9.85,8.83-20.06,10.74-31.17,5.83-33.94,2.12-68.08,2.47-102.1,.14-13.32-2.63-27.11-8.32-39.46-10.36-22.5-26.12-40.63-48.02-52.62-16.09-8.81-33.42-13.85-51.98-13.84-12.83,0-25.67,.02-38.5,0-5.29,0-10.4-4.2-10.96-8.9-.42-3.52,3.97-8.3,8.76-9.28,2.26-.46,4.62-.77,6.92-.69,19.61,.66,39.24,1.12,58.81,2.36,5.41,.34,10.86,2.62,15.94,4.83,8.59,3.73,17.19,7.63,25.24,12.39,6.37,3.76,12.14,8.65,17.78,13.5,12.2,10.48,21.29,23.55,29.45,37.25,1.98,3.33,2.58,7.46,4.36,10.95,.7,1.36,2.82,2.24,4.47,2.69,.41,.11,2.19-2.31,2.18-3.55-.14-13.8-1.15-27.62-.57-41.38,.34-8.06-2.5-12.2-9.32-15.82-6.42-3.42-11.42-8.93-13.53-16.43-1.02-3.64-3.32-7.16-3.41-10.77-.36-13.83,8.25-26.66,20.36-33.59,6.7-3.84,13.98-5.16,21.04-3.53,5.85,1.35,11.63,4.51,16.55,8.1,8.47,6.17,14.02,15.01,14.27,25.53,.36,15.43-8.25,26.17-21.35,33.24-3.68,1.99-5.07,4.16-5.04,8.11,.11,16.17,.03,32.34,.06,48.51,.01,7.34,1.06,8.02,7.45,11.03,11.6,5.47,19.87,13.99,24.45,26.48,3.8,10.35,4.01,20.8,3.85,31.42-.25,15.47-.22,30.96-1.28,46.38-.37,5.32-3.01,10.8-5.76,15.55-2.71,4.7-2.39,8.67-.25,13.12,2.43,5.03,4.86,10.07,7.08,15.2,2.66,6.17,5.41,12.32,7.56,18.68,2.2,6.51,3.7,13.26,5.53,19.89,.48,1.75,.84,3.57,1.63,5.18,2.13,4.38,.08,8.11-2.65,10.74-1.72,1.66-5.35,2.12-7.99,1.85-4.47-.46-6.45-4.16-7.71-8.11-2.68-8.41-5.14-16.89-8.04-25.22-3.02-8.69-6.51-17.21-9.71-25.83-2.37-6.37-4.25-6.69-10.25-3.85-4.99,2.36-10.57,3.52-15.95,4.99-2.49,.68-6.15-.08-7.49,1.42-2.56,2.85-3.85,6.83-5.63,10.37-3.91,7.74-7.34,15.76-11.84,23.14-3.82,6.28-8.42,12.22-13.43,17.6-10.55,11.34-22.56,20.95-36.82,27.35-9.12,4.09-18.19,8.45-27.66,11.54-6.01,1.96-12.69,2.15-19.11,2.52-10.94,.62-21.91,.76-32.86,1.08-1.16,.03-2.42,.24-3.48-.1-3.27-1.04-6.22-1.79-7.38,2.78-1.34,5.23,.17,8.71,5.03,10.14,8.33,2.45,16.99,3.97,25.04,7.1,10.23,3.99,20.43,8.45,29.81,14.11,7.39,4.46,13.86,10.66,20.11,16.74,8.28,8.05,12.33,18.32,12.35,29.86,.1,50.18,.05,100.35,.02,150.53,0,1.47-.59,2.97-.47,4.42,.14,1.67,.3,4.24,1.29,4.72,1.48,.73,4.19,.7,5.51-.24,22.78-16.25,44.05-34.31,61.23-56.49,9.75-12.59,18.98-25.87,26.33-39.94,7.63-14.62,12.79-30.55,18.86-45.97,1.66-4.21,8.15-8.99,11.46-7.86,5.62,1.91,8.43,7.79,6.41,13.45-3.44,9.61-6.35,19.46-10.51,28.75-4.41,9.84-9.71,19.33-15.21,28.62-5.68,9.6-11.48,19.24-18.29,28.05-12.56,16.26-26.09,31.74-42.37,44.51-10.5,8.24-20.64,17.06-31.81,24.28-11.02,7.12-23.01,12.82-34.83,18.6-8.69,4.25-17.7,7.94-26.78,11.3-7.07,2.62-14.46,4.4-21.74,6.45-29.06,8.19-58.8,9.56-88.69,8.16-10.82-.51-21.66-2.36-32.3-4.55-12.56-2.58-25.28-5.16-37.25-9.58-14.89-5.5-29.34-12.4-43.52-19.6-11.13-5.65-21.92-12.15-32.2-19.24-8.5-5.87-16.33-12.84-23.91-19.9-8.91-8.31-17.62-16.91-25.73-25.99-11.57-12.96-22.1-26.8-30.24-42.24-6.71-12.75-13.74-25.4-19.37-38.63-4.27-10.02-6.75-20.84-9.67-31.4-2.89-10.49-5.74-21.03-7.82-31.7-1.32-6.77-1.54-13.82-1.68-20.75-.25-13-.56-26.03,.08-39,.54-10.99,.9-22.03,4.38-32.8,2.67-8.27,2.97-17.3,5.54-25.62,3.13-10.14,7.43-19.92,11.4-29.79,3.07-7.63,6.72-15.05,9.45-22.79,.85-2.4,.32-6-.94-8.31-4.61-8.45-7.66-17.17-7.63-26.89,.06-17.67-.86-35.39,.29-52.98,1.04-15.94,7.89-29.66,22.28-38.34,2.92-1.76,6.52-2.51,9.18-4.54,1.82-1.39,3.6-4.17,3.64-6.35,.29-18.17,.26-36.34,.02-54.51-.02-1.62-1.92-3.81-3.53-4.72-6.61-3.74-12.87-7.94-16.56-14.68-4.74-8.64-7.89-17.25-3.88-27.79,3.27-8.58,8.33-15.33,15.4-20,11.59-7.65,24.09-8.77,37.42,.02,9.64,6.36,14.53,15.54,17.25,26.21,.59,2.32,.58,5.03,.04,7.37-2.9,12.53-9.36,22.59-21.27,28.3-3.62,1.74-4.5,4.16-4.44,7.91,.2,12.33,.14,24.67,.03,37.01-.03,3.29-.91,6.58-.79,9.85,.05,1.44,1.62,2.82,2.49,4.22,1.17-.98,2.92-1.74,3.42-2.99,7.4-18.58,18.46-34.67,33.26-48.01,11.38-10.25,23.77-19.07,38.55-24.06,6.36-2.14,12.39-5.33,18.82-7.18,4.55-1.31,9.52-1.19,14.3-1.69,3.63-.38,7.28-1.07,10.9-.97,2.91,.08,6.12,.55,8.61,1.92,3.11,1.71,6.1,4.29,5.35,8.66-.62,3.58-5.94,8.26-9.57,8.09-15.58-.73-30.41,3.26-44.38,9.1-13.69,5.72-26.3,13.99-35.98,25.68-5.98,7.22-12.24,14.45-16.74,22.58-5.36,9.68-8.39,20.31-10.61,31.46-5.79,29.14-1.93,58.39-2.91,87.56-.31,9.35,1.4,18.78,2.28,28.16,1.32,14.1,6.51,26.89,13.73,38.88,8.4,13.95,19.16,25.9,33.04,34.49,8.05,4.98,16.59,9.54,25.47,12.67,8.13,2.87,17,4.83,25.59,4.99,30.16,.59,60.33,.23,90.5,.23Zm-121.06,184.61h-.03c0,28-.08,55.99,.14,83.99,.02,2.23,1.49,5.28,3.28,6.51,4.06,2.79,8.6,4.97,13.17,6.88,22.3,9.29,45.24,16.61,69.39,18.63,17.35,1.45,34.87,2.36,52.25,1.68,13.99-.55,27.92-3.54,41.77-6.05,8.29-1.5,16.55-3.65,24.51-6.42,9.99-3.48,19.74-7.71,29.44-11.98,3.77-1.66,8.24-3.12,8.23-8.77-.07-55.49,.07-110.98-.36-166.47-.04-5.45-2.44-11.55-5.5-16.19-8.41-12.71-21.81-19.06-35.32-24.77-6.84-2.89-14.12-4.73-21.1-7.33-10.6-3.94-13.96-3.12-20.96,5.63-1.04,1.3-2.12,2.57-3.27,3.78-12.78,13.38-28.56,18.55-46.28,14.11-11.92-2.99-21.95-10.21-28.4-21.33-2.17-3.73-5.1-5.21-9.6-4.19-19.87,4.54-39.05,10.76-55.48,23.33-9.92,7.59-16.16,17.14-15.98,30.46,.36,26.16,.1,52.32,.1,78.49ZM17.84,395.04c1.76,15.92,2.74,32.22,5.52,48.2,3.82,21.94,10.82,43.01,20.29,63.29,8.9,19.05,19.57,37.03,32.62,53.4,17.4,21.85,37.95,40.53,61.11,56.22,1.34,.9,3.49,1.49,4.91,1.05,.85-.26,1.42-2.79,1.42-4.29,.04-50.65,.41-101.3-.24-151.94-.24-18.75,7.99-32.24,21.74-43.14,17.33-13.74,37.48-21.6,58.86-26.57,2.75-.64,5.59-1.07,8.2-2.08,4.4-1.7,4.58-5.63,3.39-9.21-.5-1.51-3.21-3.29-4.87-3.25-25.95,.68-51.64,.7-76.26-9.88-17.26-7.41-32.44-17.55-45.23-31.07-11.96-12.64-21.45-27.01-27.01-43.74-1.84-5.53-4.55-9.65-11.7-10.01-5.44-.27-11.04-2.35-16.07-4.7-5.69-2.65-7.76-2.2-9.92,3.75-3.23,8.86-6.86,17.57-10.07,26.43-2.71,7.47-5.61,14.94-7.42,22.65-2.28,9.65-3.8,19.5-5.16,29.34-1.62,11.66-2.72,23.4-4.1,35.53ZM492.42,208.23c0,15.83,0,31.66,0,47.49,0,5.67,1.12,6.84,6.39,5.5,3.83-.97,7.52-2.6,11.19-4.13,7.55-3.15,12.25-8.7,14.12-16.76,4.84-20.78,2.96-41.75,1.67-62.65-.31-4.94-2.45-10.04-4.77-14.53-5.14-9.94-15.5-11.86-25.01-14.61-3.21-.93-4.85,1.42-4.53,4.78,.33,3.47,.88,6.94,.9,10.42,.1,14.83,.04,29.66,.04,44.49Zm-452.03-3.3c.42,.04,.84,.09,1.25,.13,0,6.67-.61,13.4,.16,19.98,.84,7.18,2.17,14.51,4.72,21.23,3.12,8.2,11.42,10.57,18.91,13.3,7.74,2.82,8.82,1.94,8.68-6.29,0-.17,0-.33,0-.5,.26-32.98,.52-65.95,.81-98.93,.03-3.01-.89-5.12-4.34-4.24-3.85,.97-7.76,1.93-11.37,3.53-7.57,3.37-13.68,8.38-14.83,17.24-1.5,11.5-2.67,23.04-3.99,34.57Zm216.38,181.25s-.06,0-.09,0c0,1.16-.05,2.33,0,3.49,.76,16.59,13.95,28.1,30.28,25.91,18.55-2.48,25.65-17.55,23.65-34.62-.35-3.01-2.31-4.72-5.94-4.67-14.09,.19-28.19,.16-42.28-.01-3.39-.04-4.99,1.56-5.56,4.43-.35,1.76-.06,3.64-.06,5.46ZM83.73,36.42c.78-11.29-7.1-16.09-15.82-16.4-9.03-.33-15.61,6.93-15.56,16.45,.05,8.82,6.76,15.78,15.29,15.85,9.4,.08,16.05-6.48,16.09-15.89Zm399.93-.49c.04,9.61,6.5,16.28,15.49,16.47,7.12,.15,16.03-6.38,15.72-16.96-.27-9.26-5.95-14.6-15.75-14.59-10.56,.01-15.5,4.83-15.45,15.07Z"/>
      <path class="cls-1" d="M283.41,301.99c-23.5,0-47,.08-70.49-.03-16.04-.07-30.63-4.27-44.19-13.49-12.76-8.68-21.13-20.46-27.79-33.67-4.49-8.91-5.6-18.93-5.74-28.9-.15-10.66,0-21.33-.04-32-.03-9.68,1.48-19.4,5.57-27.86,5.88-12.17,14.14-22.91,25.17-31.42,12.46-9.61,26.89-13.75,41.84-16.87,1.6-.33,3.32-.17,4.98-.17,48,0,95.99-.28,143.98,.26,8.36,.09,16.97,2.86,24.96,5.77,13.9,5.07,25.68,13.74,34.37,25.77,4.44,6.15,7.67,13.27,10.92,20.19,8.58,18.3,5.23,37.91,5.22,56.99-.02,23.71-10.73,43.1-28.57,58.21-5.73,4.86-13.14,7.79-19.91,11.37-12.21,6.46-25.55,5.83-38.77,5.84-20.5,.02-41,0-61.49,0Zm.35-163.04c-23.66,0-47.31,.22-70.97-.09-12.38-.16-23.64,2.51-33.9,9.61-10.4,7.19-17.49,16.95-21.01,28.78-4.97,16.66-3.43,33.99-2.97,51.07,.17,6.5,1.58,13.42,4.25,19.33,9.96,22.08,27.38,34.01,51.71,35.25,7.31,.37,14.65,.14,21.97,.13,40.98-.07,81.96-.35,122.93-.11,9.17,.05,17.71-2.18,25.35-6.18,18.63-9.75,29.64-25.41,30.94-46.74,.7-11.44,.12-22.96,.11-34.44,0-9.08-1.64-17.7-5.94-25.88-10.41-19.84-26.35-30.63-49.02-30.7-24.49-.07-48.98-.02-73.47-.02Z"/>
      <path class="cls-1" d="M263.37,60.89c-7.32,0-14.64,.02-21.96,0-5.09-.02-8.57-3.02-9.49-8.11-.85-4.66,1.21-7.97,6.33-9.64,2.02-.66,4.22-1.07,6.34-1.08,12.48-.1,24.96-.21,37.43,.04,4.36,.09,9.33-.03,11.83,4.71,1.21,2.29,2.94,5.8,2.04,7.39-1.81,3.2-4.19,6.83-9.05,6.74-7.82-.15-15.64-.04-23.46-.04Z"/>
      <path class="cls-1" d="M567.27,400.23c-.49,8.94-.52,17.94-1.71,26.78-.42,3.12-3.06,6.91-5.79,8.46-2.19,1.24-7.14,.65-8.88-1.11-2.57-2.59-4.67-5.89-4.07-10.91,1.52-12.78,1.55-25.73,2.34-38.6,.13-2.18,.72-4.53,1.77-6.42,2.15-3.86,6.04-4.98,9.86-3.57,3.72,1.37,6.04,4.59,6.07,8.89,.03,5.49,0,10.97,0,16.46l.4,.02Z"/>
      <path class="cls-1" d="M283,262.1c-15.98,.8-30.51-5.56-42.84-17.18-6.41-6.05-5.8-11.21,1.14-16.46,2.89-2.19,5.69-2.45,8.68-.29,3.22,2.33,6.44,4.66,9.72,6.91,17.2,11.79,37.16,9.15,52.09-2.88,1.29-1.04,2.59-2.07,3.99-2.95,5.83-3.64,8.85-3.1,13.73,2.35,3.06,3.42,3,7.56-1.23,11.98-11.94,12.47-26.61,18.84-45.28,18.51Z"/>
      <path class="cls-1" d="M232.54,193.01c.07,10.14-6.95,17.27-17.15,17.42-9.68,.14-18.33-7.95-18.35-17.16-.02-8.59,10.27-19.59,18.33-18.46,7.77,1.09,17.63,7.28,17.17,18.21Z"/>
      <path class="cls-1" d="M334.8,193.6c-.01-9.63,8.43-18.72,17.58-18.92,7.82-.17,17.82,10.2,17.97,18.62,.15,8.74-8.56,17.06-17.93,17.13-10.22,.07-17.61-6.99-17.62-16.82Z"/>
    </g>
  </g>
</svg>