<?xml version="1.0" encoding="utf-8"?>
<!-- Generator: Adobe Illustrator 25.0.0, SVG Export Plug-In . SVG Version: 6.00 Build 0)  -->
<svg version="1.1" id="Layer_1" xmlns="http://www.w3.org/2000/svg" xmlns:xlink="http://www.w3.org/1999/xlink" x="0px" y="0px"
	 viewBox="0 0 1318.38 121.6" style="enable-background:new 0 0 1318.38 121.6;" xml:space="preserve">
<style type="text/css">
	.st0{fill:#FFFFFF;}
</style>
<g>
	<path class="st0" d="M54.53,0c5.62,0.81,11.32,0.93,16.9,2.19c9.98,2.26,19.39,5.86,28.26,10.93c2.65,1.51,3.74,3.6,3.73,6.6
		c-0.06,18.48-0.04,36.96-0.01,55.43c0,1.99-0.42,3.75-1.6,5.41c-11.96,16.92-27.36,29.96-45.35,40.1c-2.2,1.24-4.35,1.21-6.63,0.12
		c-14.68-7-27.16-16.9-38.1-28.78C7.51,87.41,3.08,82.93,0,77.4c0-20.02,0-40.05,0-60.07c1.19-2.48,3.31-3.91,5.67-5.1
		c8.9-4.5,18.14-7.98,27.93-10.06C38.99,1.01,44.47,0.82,49.89,0C51.44,0,52.98,0,54.53,0z M12.22,48.23
		c0,4.33,0.42,8.71-0.09,12.98c-1.09,9.12,1.48,16.36,8.29,22.89c9.16,8.78,18.48,17.18,29.62,23.41c1.87,1.05,3.45,1.13,5.37-0.05
		c13.3-8.15,24.84-18.23,34.34-30.61c1.31-1.71,1.87-3.44,1.86-5.57c-0.05-15.2-0.09-30.4,0.03-45.59c0.02-2.61-0.86-3.96-3.2-5.07
		C63.63,8.83,38.98,9.71,14.37,21.21c-1.82,0.85-2.19,2.14-2.17,3.93C12.24,32.84,12.21,40.53,12.22,48.23z"/>
	<path class="st0" d="M487.87,0.44c11.79,0,23.58,0,35.37,0c1.84,0,3.85-0.35,3.29,2.75c-0.28,1.55,1.28,1.38,2.29,1.41
		c3.67,0.1,7.33,0.17,11,0.33c2.84,0.12,3.14,1.2,2.67,3.57c-2.46,12.46-4.82,24.94-7.22,37.41c-0.38,1.98-0.71,3.98-1.11,5.96
		c-0.83,4.16-0.84,4.17-4.99,4.16c-4.06-0.01-8.12,0.1-12.18-0.09c-2.66-0.13-3.85,0.88-4.23,3.48c-0.36,2.46-1.29,4.84-1.68,7.31
		c-0.45,2.89-1.78,4.19-4.83,3.87c-2.2-0.23-4.44,0.01-6.66-0.04c-2.83-0.06-2.65,2.06-2.27,3.61c0.55,2.24-2.14,5.64,2.17,6.62
		c0.46,0.1,0.96,0.03,1.45,0.03c5.97,0.01,5.53-0.44,5.55,5.72c0.03,6.44-0.64,5.87,5.93,5.89c8.05,0.02,8.05,0,8.05,8.15
		c0,3.75,0,7.51,0,11.26c-0.01,4.18-0.03,4.22-4.16,4.23c-14.59,0.01-29.19,0-43.78,0c-5.9,0-11.79-0.08-17.69,0.03
		c-2.66,0.05-3.59-0.98-3.53-3.58c0.12-5.58,0.11-11.16,0.01-16.74c-0.04-2.5,0.95-3.5,3.44-3.37c2.22,0.12,4.45-0.03,6.67,0.03
		c1.87,0.05,2.61-0.79,2.55-2.61c-0.07-2.02,0.07-4.04-0.02-6.06c-0.09-2.06,0.69-2.91,2.84-2.97c5.97-0.18,5.97-0.26,5.95-6.12
		c-0.01-4.1-0.01-4.1-4.21-4.11c-2.32-0.01-4.64-0.1-6.96,0.02c-2.23,0.11-3.11-0.93-3.33-3.01c-0.29-2.77-0.94-5.51-1.11-8.29
		c-0.16-2.58-1.43-3.38-3.76-3.06c-4.23,0.57-8.49,0.27-12.74,0.41c-2.12,0.07-3.08-0.74-3.48-2.88
		c-2.83-15.13-5.74-30.25-8.72-45.35c-0.48-2.44,0.43-3.15,2.64-3.15c5.03,0,10.05-0.09,15.08-0.05c1.89,0.02,3.22-0.15,2.87-2.61
		c-0.31-2.19,1.4-2.14,2.89-2.14c6.67-0.01,13.34-0.01,20.01-0.01C477.24,0.44,482.55,0.44,487.87,0.44z M486.19,9.9
		c-7.53,0-15.06-0.01-22.59,0c-3.57,0.01-3.63,0.24-3.19,3.88c1.59,12.99,4.29,25.77,6.76,38.61c0.27,1.41,0.4,2.66-0.24,4.15
		c-1.09,2.54,0.44,4.52,3.17,4.53c9.75,0.02,19.5-0.06,29.25,0.06c2.45,0.03,3.57-0.94,3.83-3.22c0.2-1.81,0.29-3.64,0.63-5.42
		c2.54-13.12,5.07-26.23,7.74-39.32c0.53-2.59-0.07-3.37-2.77-3.32C501.25,10,493.72,9.9,486.19,9.9z M486,107.37
		c7.62,0,15.25-0.05,22.87,0.03c2.23,0.03,3.34-0.48,3.35-3.02c0.01-2.55-0.9-3.31-3.39-3.3c-15.15,0.08-30.3,0.07-45.45,0.01
		c-2.23-0.01-3.34,0.51-3.36,3.04c-0.02,2.57,0.92,3.32,3.4,3.28C470.94,107.29,478.47,107.37,486,107.37z M445.15,15.04
		c-0.48,0-0.96,0-1.45,0c-4.05,0.04-4.06,0.04-3.29,4.09c1.34,7.08,2.62,14.17,4.07,21.22c1.51,7.36,0.02,6.24,8.02,6.4
		c2.29,0.04,2.72-0.77,2.4-2.93c-1.16-8.08-2.34-16.15-4.03-24.14C449.88,15.02,449.91,15.01,445.15,15.04z M521.34,46.14
		c1.51-0.19,3.95,0.86,4.55-2.38c1.64-8.97,3.4-17.92,5.12-26.87c0.13-0.66,0.33-1.33-0.21-1.91c-1.42-1.52-7.1-0.28-7.6,1.74
		c-2.21,8.95-4.34,17.91-6.53,26.87c-0.42,1.72,0.09,2.6,1.94,2.56C519.37,46.12,520.14,46.14,521.34,46.14z M488.86,75.11
		c0-0.87,0-1.73,0-2.6c0.01-1.52-0.92-2.13-2.25-1.92c-1.72,0.28-4.26-1.24-4.95,1.46c-0.48,1.9-0.14,4.01-0.09,6.03
		c0.02,0.88,0.63,1.28,1.5,1.48C487.47,80.61,488.89,79.54,488.86,75.11z M484.68,91.78c3.57,0,7.13,0.02,10.7-0.02
		c0.82-0.01,1.98,0.13,1.99-1.09c0.01-1.2-1.13-1.14-1.96-1.15c-6.94-0.03-13.88-0.03-20.82,0c-0.83,0-1.97-0.07-1.99,1.12
		c-0.02,1.24,1.14,1.11,1.96,1.12C477.94,91.8,481.31,91.78,484.68,91.78z"/>
	<path class="st0" d="M950.58,116.18c-13.14,0-26.28,0.01-39.42,0c-3.9,0-3.97-0.06-3.97-3.8c-0.01-22.51-0.01-45.03,0-67.54
		c0-3.7,0.1-3.78,3.99-3.8c5.39-0.04,5.4-0.04,6.05-5.34c0.77-6.34,2.22-12.45,5.21-18.2c10.71-20.6,37.43-22.92,52.56-4.98
		c5.99,7.11,8.79,15.55,8.88,24.78c0.03,2.89,0.88,3.85,3.82,3.8c7.74-0.13,6.72-0.75,6.73,6.79c0.04,21.45,0.02,42.91,0.01,64.36
		c0,3.84-0.08,3.92-3.86,3.92C977.25,116.19,963.92,116.18,950.58,116.18z M950.81,107.88c10.63,0,21.26-0.07,31.89,0.05
		c2.7,0.03,3.46-0.89,3.45-3.5c-0.09-17.13-0.09-34.26,0-51.38c0.01-2.49-0.75-3.36-3.31-3.36c-21.36,0.08-42.71,0.08-64.07,0
		c-2.58-0.01-3.3,0.89-3.29,3.37c0.08,17.13,0.09,34.26-0.01,51.38c-0.01,2.62,0.76,3.52,3.45,3.49
		C929.55,107.8,940.18,107.88,950.81,107.88z M950.48,41.03c7.05,0,14.1-0.03,21.15,0.02c1.87,0.01,2.95-0.52,2.82-2.62
		c-0.54-9.07-3.23-17.11-10.44-23.25c-9.01-7.67-22.6-6.66-30.07,2.44c-4.92,6-6.57,13.11-7.04,20.66c-0.14,2.29,0.63,2.82,2.72,2.8
		C936.57,40.98,943.53,41.03,950.48,41.03z"/>
	<path class="st0" d="M597.23,52.04c-8.28,0.08-13.12-3.44-14.54-10.31c-0.42-2.03,0.24-2.86,2.22-3.05
		c2.66-0.25,4.73-0.4,5.96,3.02c1.47,4.07,7.7,5.13,11.2,2.47c1.43-1.09,2.04-2.53,1.75-4.3c-0.32-1.88-1.73-2.7-3.34-3.23
		c-3.75-1.24-7.71-1.85-11.24-3.74c-4.74-2.53-6.82-7.91-4.96-12.78c2.06-5.39,6.99-7.57,15.62-6.91c5.3,0.41,9.24,3.7,10.44,8.52
		c0.55,2.23,0.03,3.19-2.44,3.2c-2.59,0-4.7,0.1-6.01-3.01c-1.2-2.86-8.1-3.08-10.04-0.6c-1.2,1.53-0.98,3.16,0.69,4.22
		c1.12,0.71,2.45,1.12,3.73,1.53c2.48,0.79,5.03,1.39,7.48,2.26c5.96,2.1,8.59,6.51,7.8,12.82c-0.67,5.35-5.08,9.39-10.84,9.88
		C599.56,52.12,598.39,52.04,597.23,52.04z"/>
	<path class="st0" d="M161.06,104.02c-8.22,0.11-12.89-3.18-14.53-9.95c-0.54-2.22-0.02-3.23,2.35-3.44
		c2.62-0.24,4.54-0.31,5.65,3.01c1.42,4.24,8.24,5.25,11.59,2.15c2.35-2.18,1.85-5.58-1.19-6.75c-3.06-1.18-6.27-1.94-9.38-3
		c-3.31-1.13-6.03-2.98-7.4-6.41c-2.48-6.2,0.99-12.72,7.78-14.13c3.52-0.73,7.13-0.7,10.62,0.35c4.08,1.23,6.4,4.12,7.37,8.17
		c0.42,1.75-0.13,2.81-2.11,2.85c-2.58,0.05-5,0.53-6.35-2.89c-1.12-2.83-7.74-3.13-9.8-0.86c-1.36,1.49-0.91,3.86,1.17,4.77
		c2.11,0.93,4.39,1.47,6.59,2.18c1.47,0.47,2.98,0.85,4.4,1.45c5.64,2.39,8.21,6.88,7.34,12.64c-0.83,5.51-4.97,9.28-10.9,9.85
		C163.2,104.11,162.12,104.02,161.06,104.02z"/>
	<path class="st0" d="M225.27,78.58c0.66-3.48,3.19-2.42,5.12-2.36c2.2,0.07,1.74,1.95,1.74,3.29c0.03,7.88,0.06,15.76-0.02,23.65
		c-0.08,7.68-3.73,11.23-11.47,11.31c-2.51,0.03-5.04,0.16-7.43-0.83c-0.88-0.37-1.77-0.79-2.55-1.34c-2.16-1.55-3.63-5.19-2.72-6.5
		c0.62-0.9,6.36-0.77,7.37,0.55c2.23,2.91,5.07,2.84,7.74,1.55c2.96-1.43,1.79-4.47,1.89-6.94c-1.11-0.52-1.47,0.42-2.03,0.81
		c-4.44,3.06-10.33,2.16-13.25-2.36c-3.87-6-3.91-12.46-0.72-18.65C212.07,74.69,218.57,73.91,225.27,78.58z M225.05,89.49
		c0.02-1.55-0.07-3.07-0.64-4.54c-0.91-2.33-2.53-3.56-5.09-3.46c-2.47,0.1-3.87,1.47-4.57,3.73c-0.43,1.39-0.62,2.81-0.61,4.27
		c0.03,4.78,2.18,7.92,5.45,7.88C222.86,97.32,225.04,94.19,225.05,89.49z"/>
	<path class="st0" d="M1043.53,33.54c0-5.38,0.06-10.77-0.03-16.15c-0.04-2.2,0.71-3.14,3.01-3.08c4.73,0.12,9.46-0.04,14.19,0.1
		c6.36,0.19,10.49,4.81,10.64,11.66c0.15,6.65-4.33,11.78-10.64,12.09c-2.31,0.11-4.63,0.13-6.95,0.08
		c-1.85-0.04-2.62,0.74-2.58,2.58c0.06,2.98-0.1,5.96,0.03,8.94c0.15,3.2-1.98,2.86-4.05,2.91c-2.16,0.06-3.75-0.14-3.67-3
		C1043.64,44.31,1043.53,38.93,1043.53,33.54z M1051.2,26.43c-0.02,5.62,0.02,5.66,5.6,5.18c0.86-0.07,1.72-0.23,2.55-0.42
		c2.78-0.64,4.18-2.6,3.9-5.46c-0.26-2.7-1.85-4.12-4.52-4.29c-1.63-0.11-3.26-0.04-4.9-0.1c-1.77-0.06-2.73,0.65-2.65,2.52
		C1051.23,24.71,1051.2,25.57,1051.2,26.43z"/>
	<path class="st0" d="M1282.35,49.77c-7.74,7.09-16.17,2.25-18.1-5.64c-1.06-4.32-0.98-8.61,0.61-12.77
		c2.52-6.63,8.81-8.94,15.01-5.49c1.83,1.02,2.16,0.45,2.14-1.27c-0.03-2.6,0.05-5.2,0-7.79c-0.05-2.69,1.83-2.49,3.59-2.45
		c1.76,0.04,3.92-0.53,3.92,2.41c-0.01,11.16,0,22.32,0,33.48c0,1.44-0.51,2.5-2.17,2.39C1285.32,52.49,1282.57,53.72,1282.35,49.77
		z M1281.98,38.62c0.08-1.85-0.12-3.66-0.96-5.32c-0.91-1.84-2.33-3.1-4.49-3.1c-2.03,0-3.54,1.11-4.33,2.87
		c-1.7,3.77-1.78,7.7,0.1,11.39c1.9,3.76,6.41,3.67,8.52,0.01C1281.86,42.65,1282.07,40.66,1281.98,38.62z"/>
	<path class="st0" d="M611.17,85.41c8.4-0.01,8.4-0.01,8.4,8.35c0,7.01-2.81,10.13-11.56,11.69c-7.22,1.29-14.07,0.31-19.52-5.35
		c-6.33-6.58-6.82-19.48-1-27.35c4.85-6.56,15.85-8.88,23.99-5.04c3.12,1.47,5.25,3.87,6.47,7.06c0.46,1.22,1.36,2.59-0.69,3.29
		c-1.63,0.56-3.25,1.02-4.06-1.19c-1.49-4.04-4.75-5.8-8.71-6.14c-6.87-0.58-12.82,2.16-14.69,9.66c-0.87,3.52-1,7.01-0.18,10.55
		c1.69,7.27,8.63,11.43,16.51,9.78c1.5-0.31,2.97-0.85,4.38-1.46c3.5-1.52,4.62-4.08,3.63-7.69c-0.34-1.24-1.2-1.37-2.2-1.38
		c-2.22-0.02-4.44-0.05-6.66-0.02c-1.61,0.02-2.55-0.51-2.58-2.3c-0.04-1.91,0.89-2.55,2.67-2.5
		C607.3,85.46,609.24,85.41,611.17,85.41z"/>
	<path class="st0" d="M1223.95,27.2c0-3.69,0.09-6.95-0.03-10.2c-0.09-2.58,1.49-2.73,3.39-2.66c1.81,0.06,3.79-0.36,3.78,2.56
		c-0.06,11.06-0.03,22.11-0.01,33.17c0,1.57-0.44,2.62-2.27,2.59c-2.06-0.04-4.51,0.67-4.52-3.14c-2.04,1.74-3.79,3.25-6.14,3.64
		c-4.91,0.8-9.47-1.87-11.4-6.9c-1.9-4.95-1.93-10-0.08-14.96C1209.35,24.12,1216.18,22.37,1223.95,27.2z M1213.01,38.59
		c0.02,1.83-0.04,3.67,0.78,5.38c0.95,1.98,2.46,3.27,4.72,3.23c2.29-0.04,3.78-1.45,4.53-3.47c1.23-3.37,1.2-6.82-0.04-10.17
		c-0.75-2.04-2.31-3.39-4.61-3.34c-2.21,0.05-3.8,1.2-4.68,3.28C1213.02,35.13,1213,36.86,1213.01,38.59z"/>
	<path class="st0" d="M216.87,37.99c0-4.13-0.01-8.27,0.01-12.4c0.01-1.04-0.08-2.28,1.38-2.46c1.2-0.15,2.65-0.56,3.18,1.1
		c0.45,1.4,0.97,0.94,1.83,0.36c5.19-3.48,8.8-3.19,13.27,1.22c1.05,1.04,1.44,0.39,2.02-0.26c2.06-2.32,4.63-3.3,7.74-3.18
		c4.12,0.17,7.05,2.36,7.72,6.41c1.22,7.44,0.46,14.97,0.54,22.46c0.02,1.9-1.37,1.98-2.83,2c-1.79,0.02-2.35-0.9-2.35-2.52
		c0-6.15,0.01-12.31-0.07-18.46c-0.03-2.12-0.69-4.09-2.99-4.8c-2.28-0.71-4.42-0.21-6.15,1.49c-1.06,1.05-1.49,2.42-1.72,3.89
		c-0.91,5.74-0.25,11.52-0.48,17.28c-0.05,1.18,0.31,2.58-1.45,3.03c-2.14,0.54-3.35-0.25-3.38-2.52c-0.06-5-0.02-10-0.03-15
		c0-1.06,0.09-2.13-0.08-3.17c-0.39-2.39-0.72-4.91-3.91-5.25c-2.98-0.32-5.55,1.28-6.46,4.2c-0.68,2.21-0.93,4.51-0.93,6.83
		c-0.01,4.04-0.04,8.08,0,12.12c0.02,1.81-0.42,2.93-2.57,2.89c-2.08-0.04-2.31-1.25-2.3-2.85
		C216.88,46.26,216.87,42.13,216.87,37.99z"/>
	<path class="st0" d="M1191.04,102.55c-3.93,2.84-7.89,3.56-12.05,1.85c-5.35-2.2-7.16-6.91-7.52-12.07
		c-0.52-7.6,3.09-14.09,10.49-15.3c2.85-0.47,5.35,0.3,7.7,1.79c0.86,0.55,1.52,1.22,2.14-0.33c0.54-1.34,1.89-1.12,3.04-0.96
		c1.42,0.21,1.46,1.35,1.46,2.43c-0.02,8.65,0.12,17.31-0.13,25.96c-0.17,6.01-4.37,9.93-10.43,10.26c-3.18,0.17-6.38,0.3-9.3-1.43
		c-1.55-0.92-2.81-2.07-3.43-3.76c-0.41-1.11-1.31-2.58,0.24-3.3c1.42-0.66,3.33-0.56,4.12,1.02c1.97,3.96,5.42,3.6,8.76,3.12
		C1189.8,111.31,1191.15,108.65,1191.04,102.55z M1191.63,91.26c-0.15-1.33-0.15-2.7-0.46-3.99c-0.91-3.8-3.52-5.87-7.17-5.85
		c-3.69,0.02-5.96,2.1-6.93,6.09c-0.71,2.91-0.46,5.74,0.38,8.53c0.93,3.07,3.57,4.95,6.71,4.97c3.03,0.02,5.55-1.74,6.68-4.63
		C1191.48,94.72,1191.53,93,1191.63,91.26z"/>
	<path class="st0" d="M148.39,32.65c-0.06-6.33,1.18-11.56,4.82-16.05c7.34-9.07,22.67-7.26,27.27,3.24
		c0.57,1.3,1.76,2.91-0.64,3.77c-1.81,0.65-3.46,1.15-4.38-1.44c-1.49-4.19-4.79-6.32-9.12-6.32c-4.54,0-8.34,1.84-10.3,6.19
		c-2.96,6.56-2.94,13.28-0.33,19.91c1.76,4.49,5.89,7.09,10.37,7.01c4.65-0.09,8.11-2.67,9.91-7.52c0.59-1.59,0.85-3.13,3.29-2.49
		c2.32,0.61,2.93,1.56,2.11,3.88c-2.3,6.55-7.25,10.7-13.45,11.01c-8.67,0.43-14.03-2.51-17.15-9.51
		C149.02,40.4,148.22,36.27,148.39,32.65z"/>
	<path class="st0" d="M1044.68,85.92c0-5.38,0.02-10.77-0.02-16.15c-0.01-1.73,0.51-2.79,2.44-2.74c5.88,0.15,11.78-0.43,17.64,0.46
		c5.94,0.9,9.62,4.95,9.66,10.72c0.04,6.06-3.73,10.44-9.72,11.37c-3.74,0.58-7.51,0.67-11.27,0.5c-2.48-0.11-3.53,0.72-3.39,3.29
		c0.16,3.07-0.02,6.15,0.04,9.23c0.04,2.02-0.9,2.68-2.83,2.66c-1.86-0.02-2.59-0.78-2.57-2.6
		C1044.71,97.07,1044.68,91.49,1044.68,85.92z M1057.9,72.22c0-0.01,0-0.02,0-0.03c-1.84,0-3.67,0-5.51,0
		c-1.33,0-2.29,0.45-2.29,1.96c-0.01,2.98-0.01,5.97,0.01,8.95c0.01,1.17,0.71,1.78,1.84,1.78c3.86-0.02,7.75,0.17,11.58-0.21
		c3.64-0.35,5.23-2.85,5.01-6.84c-0.19-3.45-2.14-5.41-5.72-5.6C1061.19,72.15,1059.54,72.22,1057.9,72.22z"/>
	<path class="st0" d="M1159.08,39.52c0.18,3.93-0.41,7.71,0.81,11.37c0.36,1.07-0.18,1.77-1.27,1.69c-1.99-0.14-4.25,0.96-5.79-1.41
		c-0.67-1.02-1.59-0.07-2.25,0.38c-2.1,1.44-4.41,1.83-6.9,1.69c-4.11-0.22-6.94-2.6-7.72-6.54c-0.76-3.86,1.03-7.31,4.62-9
		c2.83-1.34,5.97-1.54,8.93-2.44c1.1-0.33,2.43-0.47,2.36-2.04c-0.08-1.52-0.98-2.53-2.45-2.85c-2.18-0.48-4.2-0.34-5.71,1.69
		c-0.97,1.31-5.47,1.4-6.48,0.24c-0.44-0.51-0.3-1.06-0.16-1.64c1.06-4.55,5.95-6.95,13.13-6.43c5.58,0.41,8.6,3.07,8.87,7.99
		C1159.19,34.71,1159.08,37.22,1159.08,39.52z M1151.98,42.18c-0.01-1.73-0.28-2.07-1.63-2.07c-3.7,0-7.46,2.28-7.15,4.49
		c0.29,2.02,1.59,3.25,3.77,3.19C1149.85,47.7,1152,45.26,1151.98,42.18z"/>
	<path class="st0" d="M1258.86,39.77c0.2,3.63-0.43,7.32,0.76,10.89c0.31,0.92,0.24,1.94-0.98,1.88c-1.99-0.09-4.27,1.1-5.85-1.2
		c-0.85-1.23-1.73-0.26-2.47,0.24c-2.1,1.43-4.42,1.8-6.91,1.66c-4.09-0.23-6.93-2.64-7.68-6.59c-0.73-3.86,1.06-7.29,4.67-8.98
		c2.84-1.32,5.98-1.54,8.93-2.43c1.11-0.34,2.41-0.5,2.31-2.08c-0.09-1.38-0.87-2.38-2.21-2.73c-2.28-0.6-4.38-0.48-5.97,1.66
		c-0.96,1.29-5.53,1.34-6.48,0.16c-0.42-0.52-0.26-1.07-0.12-1.64c1.15-4.64,6.25-7.05,13.45-6.36c5.41,0.52,8.29,3.16,8.54,8.01
		C1258.97,34.76,1258.86,37.26,1258.86,39.77z M1246.78,47.82c1.41-0.19,2.87-0.67,3.83-2.01c1.11-1.56,1.79-3.51,0.82-5.12
		c-0.93-1.55-2.62-0.1-3.96,0.06c-0.84,0.1-1.67,0.46-2.44,0.84c-1.38,0.69-2.41,1.76-1.98,3.42
		C1243.51,46.74,1244.71,47.77,1246.78,47.82z"/>
	<path class="st0" d="M755.5,61.84c-1.19-0.49-4.16,1.19-4.09-1.94c0.06-2.63,2.7-1.21,4.2-1.57c0.37-0.09,0.77-0.01,1.16-0.05
		c1.39-0.13,2.96-0.31,2.83-2.13c-0.11-1.57-1.57-1.75-2.88-1.76c-1.51-0.01-3.61,0.84-2.67-2.22c0.27-0.89-0.87-1.15-1.53-1.47
		c-8.24-4.15-8.22-19.33-1.85-24.51c5.73-4.66,15.42-3.25,18.7,2.89c1.43,2.68,1.14,3.25-1.74,3.93c-2.19,0.51-3.86,0.71-5.33-1.79
		c-1.66-2.82-6.2-2.23-7.64,0.86c-1.7,3.66-1.69,7.58,0.05,11.19c1.75,3.63,6.36,3.57,8.38,0.11c1.27-2.18,5.16-2.86,7.02-1.27
		c0.88,0.76,0.48,1.6,0.19,2.38c-1.05,2.91-2.74,5.29-5.68,6.6c-0.95,0.42-1.57,0.75-0.96,2.12c2.15,4.87,0.07,8.07-5.45,8.62
		C757.45,61.91,756.67,61.84,755.5,61.84z"/>
	<path class="st0" d="M741.37,38.45c0.2,4.08-0.38,7.66,0.8,11.14c0.32,0.96,0.11,1.89-1.09,1.82c-2-0.12-4.28,1.03-5.88-1.22
		c-0.74-1.04-1.56-0.32-2.25,0.16c-2.17,1.53-4.6,1.89-7.18,1.72c-3.94-0.25-6.88-2.73-7.54-6.4c-0.73-4.02,1.14-7.71,4.97-9.07
		c2.81-0.99,5.79-1.48,8.68-2.27c1.08-0.29,2.48-0.49,2.25-2.11c-0.21-1.45-1.07-2.5-2.64-2.65c-2.14-0.21-4.23-0.37-5.65,1.88
		c-0.76,1.21-4.87,1.29-6.09,0.11c-1.44-1.39-0.06-2.67,0.62-3.81c0.95-1.59,2.35-2.85,4.17-3.42c3.88-1.21,7.84-1.21,11.71-0.11
		c3.38,0.96,4.94,3.57,5.11,6.96C741.47,33.78,741.37,36.39,741.37,38.45z M734.29,40.95c0.06-1.25-0.24-2.16-1.78-1.74
		c-1.76,0.47-3.56,0.85-5.24,1.52c-1.34,0.54-2.07,1.73-1.73,3.26c0.32,1.44,1.25,2.33,2.73,2.62
		C731.46,47.24,734.38,44.5,734.29,40.95z"/>
	<path class="st0" d="M797.06,36.55c-0.31,4.5-0.6,9.01,0.66,13.43c0.17,0.6,0.08,1.3-0.64,1.35c-1.97,0.12-4.36,1.03-5.79-0.57
		c-1.39-1.56-2.1-0.88-3.28-0.13c-2.5,1.58-5.29,1.78-8.1,1.27c-3.31-0.6-5.8-3.32-6.13-6.45c-0.46-4.33,1.02-7.17,4.55-8.72
		c2.76-1.21,5.76-1.58,8.65-2.33c1.34-0.35,2.72-0.69,2.43-2.57c-0.24-1.63-1.35-2.23-2.84-2.32c-2.05-0.12-4.02-0.2-5.34,1.95
		c-0.72,1.19-4.97,1.17-6.07,0.01c-1.29-1.35,0.09-2.48,0.64-3.59c0.85-1.7,2.25-2.92,4.06-3.5c4.16-1.33,8.38-1.37,12.47,0.14
		c2.4,0.88,3.89,2.76,4.22,5.41C796.85,32.15,797.19,34.33,797.06,36.55z M789.51,41.72c-0.24-0.86,0.62-2.36-1.27-2.56
		c-2.97-0.32-7.24,2.01-7.24,4.03c0.01,2.2,1.31,3.34,3.45,3.45C787.22,46.79,789.35,44.72,789.51,41.72z"/>
	<path class="st0" d="M638.75,38.27c0.14,4.05-0.41,7.83,0.9,11.47c0.23,0.64,0.45,1.54-0.52,1.6c-1.98,0.13-4.38,1.01-5.82-0.53
		c-1.39-1.49-2.17-0.92-3.36-0.21c-1.16,0.69-2.4,1.23-3.77,1.41c-5.58,0.75-9.7-1.79-10.57-6.54c-0.85-4.62,1.92-8.28,7.37-9.68
		c2.24-0.58,4.51-1.04,6.76-1.61c0.98-0.25,1.83-0.7,1.8-1.93c-0.03-1.05-0.48-1.99-1.46-2.3c-2.26-0.72-4.73-1.22-6.37,1.02
		c-1.97,2.71-4.12,1.09-6.22,0.61c-0.94-0.22-0.83-1.12-0.63-1.93c1.11-4.6,6.22-6.78,14.16-6.03c4.83,0.46,7.51,3.1,7.71,7.74
		C638.84,33.78,638.75,36.18,638.75,38.27z M631.65,41.47c-0.21-0.82,0.56-2.3-1.42-2.32c-3.51-0.04-7.12,1.93-7.14,4.03
		c-0.02,2.17,1.17,3.38,3.35,3.49C629.16,46.81,631.47,44.53,631.65,41.47z"/>
	<path class="st0" d="M309.19,90.49c0.21,4.01-0.39,7.59,0.79,11.06c0.4,1.18-0.07,1.99-1.34,1.88c-1.89-0.16-4.07,0.96-5.54-1.31
		c-0.7-1.08-1.58-0.17-2.24,0.26c-2.3,1.49-4.81,1.89-7.48,1.66c-3.55-0.3-6.31-2.82-7.13-6.54c-0.75-3.43,0.84-6.77,4-8.47
		c2.77-1.49,5.91-1.7,8.87-2.55c1.32-0.38,3.13-0.43,2.86-2.52c-0.25-1.88-1.67-2.39-3.37-2.49c-1.92-0.11-3.58,0.16-4.83,1.91
		c-0.93,1.3-4.87,1.32-6.02,0.06c-1.33-1.46,0.07-2.68,0.7-3.87c0.68-1.29,1.76-2.35,3.14-2.89c4.39-1.7,8.88-1.74,13.28-0.14
		c2.97,1.08,4.14,3.65,4.28,6.62C309.29,85.77,309.19,88.37,309.19,90.49z M302.13,93.13c0.01-1.67-0.16-1.94-1.31-2.01
		c-3.45-0.19-7.3,2.02-7.22,4.22c0.08,2.18,1.35,3.29,3.51,3.31C299.92,98.68,302.1,96.24,302.13,93.13z"/>
	<path class="st0" d="M1309.36,41.1c-2.03,0-4.05,0-6.08,0c-1.7,0-2.3,0.9-1.8,2.43c0.59,1.82,1.72,3.28,3.71,3.69
		c1.91,0.39,3.59,0.08,4.79-1.77c0.98-1.51,6.18-1.76,7.23-0.44c0.7,0.88,0.02,1.65-0.36,2.38c-2.6,4.95-6.97,6.28-12.19,5.85
		c-4.8-0.4-8.16-2.78-9.85-7.28c-1.76-4.68-1.7-9.43,0.03-14.11c1.73-4.66,5.75-7.51,10.57-7.64c5.13-0.13,9.19,2.41,11.26,7.06
		c0.16,0.35,0.3,0.71,0.43,1.07c2.59,7.22,1.56,8.74-6,8.74c-0.58,0-1.16,0-1.74,0C1309.36,41.08,1309.36,41.09,1309.36,41.1z
		 M1305.95,36.29c0-0.02,0-0.03,0-0.05c1.16,0,2.31,0.03,3.46-0.01c1.1-0.04,1.46-0.67,1.36-1.74c-0.3-3.29-4.11-5.35-6.89-3.67
		c-1.56,0.94-2.82,2.35-2.45,4.22c0.41,2.04,2.37,0.97,3.65,1.24C1305.37,36.34,1305.67,36.29,1305.95,36.29z"/>
	<path class="st0" d="M828.52,38.01c-0.05,10.66-9.28,16.95-19.09,13.02c-5.84-2.34-8.97-9.11-7.59-16.42
		c1.27-6.73,5.99-10.9,12.49-11.05C823.12,23.37,828.56,28.9,828.52,38.01z M821.26,37.88c0.03-4.58-2.49-8.04-5.97-8.21
		c-3.51-0.17-6.11,3.05-6.33,7.81c-0.01,0.19-0.01,0.38-0.01,0.57c0.14,4.79,2.59,7.9,6.24,7.9
		C818.62,45.96,821.23,42.5,821.26,37.88z"/>
	<path class="st0" d="M194.64,91.97c-2.12,0-4.25,0-6.37,0c-1.75,0-2.22,0.97-1.71,2.46c0.62,1.81,1.73,3.27,3.73,3.65
		c1.92,0.37,3.58,0.03,4.77-1.83c0.95-1.5,6.27-1.53,7.21-0.16c0.54,0.8-0.04,1.48-0.37,2.13c-2.13,4.09-5.61,5.78-10.15,5.89
		c-5.02,0.13-8.95-1.61-11.17-6.17c-2.58-5.31-2.61-10.84,0-16.14c2.33-4.73,6.41-6.65,11.68-6.26c4.44,0.33,8.14,3.05,9.71,7.46
		c0.78,2.18,1.23,4.43,1.16,6.78c-0.04,1.42-0.66,2.13-2.11,2.13c-2.12-0.01-4.24,0-6.37,0C194.64,91.93,194.64,91.95,194.64,91.97z
		 M191.06,87.18c0.48,0,0.97,0.06,1.44-0.01c1.15-0.17,2.89,0.59,3.21-1.03c0.36-1.81-0.74-3.34-2.39-4.2
		c-1.43-0.74-3-0.72-4.43,0.05c-1.55,0.83-2.58,2.3-2.33,3.97c0.28,1.88,2.15,0.98,3.35,1.2C190.28,87.24,190.67,87.18,191.06,87.18
		z"/>
	<path class="st0" d="M260.95,43.73c0-5.87-0.02-11.73,0.01-17.6c0.01-1.09-0.37-2.55,1.14-2.92c1.34-0.33,2.89-0.71,3.57,1.3
		c0.49,1.45,1.15,0.3,1.67-0.07c4.99-3.62,11.5-2.44,14.85,2.71c3.82,5.87,3.78,16.08-0.08,21.72c-3.46,5.07-9.1,6.43-14.38,3.33
		c-1.63-0.96-1.97-0.55-1.95,1.1c0.04,2.98-0.02,5.96,0.01,8.94c0.01,1.6-0.51,2.52-2.32,2.55c-1.9,0.03-2.56-0.81-2.55-2.61
		C260.98,56.03,260.96,49.88,260.95,43.73z M279.68,37.88c-0.11-2.2,0.1-4.51-0.93-6.7c-1.24-2.64-3.04-4.55-6.12-4.48
		c-3.1,0.07-4.89,2.15-5.92,4.78c-1.59,4.07-1.46,8.31-0.43,12.46c0.82,3.3,3.56,5.42,6.35,5.41c2.77,0,5.31-2.16,6.42-5.4
		C279.73,42.01,279.58,39.98,279.68,37.88z"/>
	<path class="st0" d="M685.58,23.57c4.28-0.13,8.12,0.64,10.37,4.84c0.89,1.66,0.71,2.65-1.37,3.05c-2.19,0.42-4.12,1.04-5.9-1.3
		c-1.33-1.74-3.69-1.38-5.71-0.9c-0.87,0.21-1.66,0.68-1.72,1.71c-0.06,1.06,0.73,1.53,1.59,1.79c1.85,0.56,3.72,1.03,5.58,1.57
		c1.11,0.32,2.23,0.64,3.31,1.06c4.16,1.59,6.17,4.1,6.1,7.53c-0.07,3.62-2.46,7-6.17,8.32c-4.56,1.62-12.94,1.61-16.34-3.2
		c-0.9-1.27-2.8-2.71-1.04-4.44c1.56-1.52,5.48-0.95,6.72,0.64c1.75,2.26,4.6,3.07,7.21,2.05c1.03-0.4,1.96-0.91,1.99-2.2
		c0.03-1.33-0.93-1.82-1.99-2.13c-2.13-0.62-4.29-1.15-6.42-1.79c-5.68-1.71-8.3-4.94-7.62-9.3c0.71-4.58,4.28-7.2,9.97-7.31
		C684.61,23.56,685.1,23.57,685.58,23.57z"/>
	<path class="st0" d="M262.22,89.86c0,3.56,0.03,7.12-0.01,10.67c-0.01,1.11,0.21,2.65-1.35,2.77c-1.8,0.14-4.13,1.18-5.3-0.85
		c-0.87-1.5-1.3-1.16-2.27-0.42c-1.56,1.19-3.33,1.9-5.33,2.02c-5.49,0.33-9.1-2.38-9.42-7.83c-0.36-5.94-0.14-11.92-0.14-17.88
		c0-2.78,2.15-2.15,3.78-2.23c1.73-0.08,3.36-0.04,3.32,2.43c-0.06,3.65-0.01,7.31,0.01,10.96c0.01,1.25-0.02,2.51,0.11,3.75
		c0.39,3.71,1.58,5,4.37,4.88c2.85-0.12,4.55-1.9,4.64-5.17c0.12-4.32,0.07-8.65,0.11-12.98c0.03-3.45,3.42-5.33,6.51-3.62
		c1.05,0.58,0.97,1.59,0.98,2.53C262.23,82.55,262.21,86.21,262.22,89.86z"/>
	<path class="st0" d="M321.49,22.39c6.17,0.01,9.02,2.89,9.22,10.58c0.16,6.24-0.67,12.51,0.66,18.7c0.16,0.76-0.04,1.43-0.91,1.46
		c-1.39,0.05-3.26,0.73-3.88-0.97c-0.85-2.34-1.69-1.48-3-0.54c-3.27,2.35-7.01,2.69-10.82,1.95c-3.59-0.7-6.13-3.88-6.44-7.64
		c-0.3-3.65,1.86-7.33,5.25-8.89c2.59-1.19,5.42-1.35,8.17-1.83c0.86-0.15,1.73-0.23,2.57-0.43c1.28-0.32,2.83-0.35,3.02-2.15
		c0.21-1.95-0.28-3.67-2.07-4.74c-3.11-1.86-9.42-1.51-10.67,2.75c-0.65,2.22-2.41,1.95-4.02,1.28c-1.92-0.81-0.95-2.31-0.46-3.44
		C310.36,23.32,314.85,22.33,321.49,22.39z M325.38,41.58c-0.21-0.94,0.54-2.81-1.56-2.51c-3.05,0.44-6.1,1.07-9.05,1.94
		c-1.99,0.59-3.22,2.24-3,4.43c0.23,2.27,1.71,3.6,3.93,4.05C320.72,50.51,325.22,46.88,325.38,41.58z"/>
	<path class="st0" d="M784.41,85.94c0,5.48,0.02,10.96-0.01,16.44c-0.01,1.01,0.25,2.32-1.13,2.65c-1.17,0.27-2.63,0.69-3.41-0.68
		c-0.7-1.24-1.28-0.67-2.07-0.23c-6.35,3.49-13.25,1.4-16.22-5.13c-2.52-5.56-2.46-11.23,0.49-16.68c3.07-5.67,10-7.47,15.4-3.93
		c1.89,1.24,2.07,0.49,2.06-1.16c-0.01-2.69,0.04-5.38-0.01-8.08c-0.03-1.75,0.58-2.7,2.5-2.7c1.98,0,2.42,1.08,2.41,2.77
		C784.38,74.79,784.4,80.37,784.41,85.94z M779.65,91.5c0.04-2.03-0.07-4.03-0.87-5.95c-1.28-3.08-3.61-4.72-6.64-4.61
		c-2.9,0.1-5.1,1.73-6.15,4.84c-1.24,3.67-1.15,7.4,0.1,11.04c1,2.9,3.84,4.82,6.59,4.76c3.11-0.07,5.42-1.97,6.48-5.24
		C779.68,94.76,779.62,93.13,779.65,91.5z"/>
	<path class="st0" d="M1233.19,79.92c0-3.66,0.02-6.73-0.01-9.8c-0.02-1.67,0.11-3.08,2.37-3.11c2.16-0.03,2.54,1.15,2.54,2.94
		c-0.03,10.77-0.01,21.55-0.03,32.32c0,1.01,0.28,2.32-1.05,2.71c-1.17,0.35-2.64,0.72-3.44-0.57c-0.71-1.14-1.18-0.75-2.03-0.28
		c-6.81,3.75-14.24,0.89-16.88-6.42c-1.61-4.45-1.43-8.91,0.17-13.28c2.51-6.86,10.12-9.49,16.36-5.76
		C1231.67,78.97,1232.14,79.27,1233.19,79.92z M1233.44,91.59c-0.14-1.84-0.15-3.66-0.81-5.41c-1.22-3.2-3.52-4.83-6.8-4.76
		c-3.2,0.07-5.45,1.89-6.37,5.24c-0.88,3.22-0.87,6.46,0.11,9.65c0.98,3.2,3.75,5.3,6.79,5.29c3.16-0.01,5.65-2.01,6.53-5.48
		C1233.25,94.66,1233.27,93.11,1233.44,91.59z"/>
	<path class="st0" d="M803.86,76.8c1.74-0.07,3.47-0.13,5.17,0.4c3.14,0.98,5.08,2.91,5.62,6.26c0.6,3.74,0.25,7.49,0.38,11.24
		c0.09,2.59,0.18,5.19,0.28,7.78c0.03,0.87,1.09,2.09-0.23,2.51c-1.39,0.45-3.43,0.93-4.21-0.67c-1.04-2.12-1.96-1.44-3.27-0.56
		c-3.15,2.1-6.7,2.38-10.32,1.93c-3.63-0.46-6.55-3.29-7.09-6.67c-0.54-3.4,1.36-6.77,4.71-8.49c3.28-1.69,6.98-1.39,10.43-2.24
		c1.67-0.41,4.28,0.28,4.27-2.71c-0.01-2.45-1.96-4.33-4.75-4.57c-3.49-0.3-6.83-0.21-8.54,3.73c-0.9,2.06-2.67,1.19-4.03,0.7
		c-1.66-0.6-0.81-1.93-0.38-2.92c1.61-3.67,4.78-5.12,8.49-5.67C801.52,76.66,802.7,76.8,803.86,76.8z M801.05,101.67
		c5.28,0.02,8.48-2.99,8.63-8.03c0.04-1.37-0.28-1.98-1.81-1.63c-2.54,0.57-5.11,0.99-7.66,1.52c-3.27,0.68-4.85,2.26-4.62,4.55
		C795.82,100.31,797.86,101.65,801.05,101.67z"/>
	<path class="st0" d="M686.72,76.57c1.53,0.17,3.1,0.18,4.58,0.54c3.91,0.95,5.86,3.42,6.05,7.42c0.31,6.32-0.6,12.7,0.8,18.98
		c0.16,0.73,0.08,1.46-0.8,1.55c-1.39,0.15-3.15,0.77-3.97-0.77c-0.94-1.78-1.79-1.54-3.13-0.62c-3.03,2.07-6.47,2.41-10,2.04
		c-3.98-0.42-6.89-3.08-7.36-6.62c-0.54-4.04,1.44-7.41,5.3-8.93c3.18-1.25,6.63-1.23,9.93-1.92c1.69-0.35,3.9-0.15,3.9-2.87
		c0.01-2.63-1.63-3.75-3.9-4.27c-4.25-0.96-6.69-0.01-9.25,3.79c-1.26,1.87-2.86,0.93-4.14,0.51c-1.68-0.55-0.66-1.94-0.26-2.9
		c1.61-3.85,4.97-5.16,8.76-5.69c1.14-0.16,2.31-0.02,3.47-0.02C686.71,76.72,686.72,76.64,686.72,76.57z M683.77,101.67
		c5.16-0.02,8.74-3.43,8.27-7.82c-0.12-1.08-0.4-1.99-1.7-1.75c-3.11,0.57-6.23,1.13-9.29,1.91c-1.55,0.4-2.63,1.56-2.78,3.31
		c-0.15,1.74,0.75,2.91,2.14,3.77C681.44,101.73,682.62,101.63,683.77,101.67z"/>
	<path class="st0" d="M638.5,76.79c1.93-0.09,3.86-0.1,5.71,0.61c2.87,1.11,4.68,3.13,4.92,6.2c0.52,6.7-0.58,13.47,0.92,20.12
		c0.18,0.79-0.22,1.35-1.04,1.39c-1.31,0.06-3.02,0.66-3.72-0.76c-1.01-2.05-2-1.46-3.35-0.57c-3.06,2.02-6.51,2.32-10.03,1.9
		c-3.95-0.47-6.79-3.23-7.17-6.8c-0.42-3.85,1.61-7.25,5.28-8.71c3.18-1.27,6.62-1.24,9.92-1.94c1.68-0.35,3.91-0.11,3.95-2.82
		c0.04-2.79-1.73-4.03-4.12-4.34c-3.65-0.48-7.21-0.5-9.05,3.72c-0.91,2.09-2.75,1-4.06,0.61c-1.74-0.52-0.73-1.91-0.34-2.87
		c1.58-3.86,4.93-5.19,8.72-5.74C636.16,76.65,637.34,76.79,638.5,76.79z M635.59,101.67c5.17-0.01,8.73-3.38,8.31-7.79
		c-0.12-1.27-0.54-2.04-1.96-1.76c-2.92,0.57-5.86,1.07-8.74,1.77c-1.56,0.38-2.74,1.41-3.04,3.12c-0.27,1.57,0.38,2.78,1.6,3.76
		C632.89,101.68,634.24,101.64,635.59,101.67z"/>
	<path class="st0" d="M1253.29,105.78c-0.25,0-0.73,0.02-1.22,0c-4.32-0.22-7.64-2.97-8.24-6.78c-0.56-3.63,1.99-7.49,5.97-8.86
		c3.22-1.11,6.68-0.97,9.97-1.74c1.48-0.35,3.64-0.03,3.49-2.51c-0.14-2.38-1.4-4.07-3.89-4.3c-3.67-0.35-7.4-0.87-9.47,3.5
		c-0.83,1.74-2.77,1.28-4.14,0.66c-1.55-0.7-0.55-2.02-0.11-2.99c1-2.19,2.67-3.78,4.94-4.63c2.28-0.86,4.66-1.31,7.09-1.27
		c7.87,0.12,10.77,3.07,11,10.88c0.15,5.28-0.53,10.58,0.56,15.83c0.15,0.72,0.18,1.49-0.74,1.55c-1.39,0.09-3.29,0.76-3.98-0.77
		c-0.99-2.19-1.94-1.41-3.27-0.59C1258.9,105.2,1256.32,105.92,1253.29,105.78z M1254.35,101.69c5.67,0,8.57-2.59,8.9-7.49
		c0.06-0.95,0.21-2.33-1.22-2c-3.46,0.81-7.08,0.85-10.41,2.17c-1.56,0.62-2.43,1.98-2.34,3.64c0.1,1.82,1.31,2.94,3.03,3.42
		C1253.13,101.65,1254.02,101.65,1254.35,101.69z"/>
	<path class="st0" d="M1157.26,93c-2.61,0-5.21,0.03-7.82-0.01c-2.19-0.04-2.72,0.95-2.02,2.91c1.08,3.04,3.01,5.13,6.32,5.64
		c3.26,0.5,5.93-0.46,7.63-3.42c0.6-1.04,1.14-1.86,2.61-1.81c3.23,0.1,3.88,1.05,2.21,3.84c-3.11,5.22-8.1,6.1-13.58,5.58
		c-4.97-0.47-8.86-3.84-10.32-8.84c-1.02-3.5-1.01-7.03-0.02-10.53c1.8-6.34,7.88-10.33,14.12-9.32
		c6.97,1.13,11.51,6.55,11.39,13.49c-0.03,1.7-0.73,2.48-2.42,2.46c-2.7-0.02-5.4-0.01-8.11-0.01
		C1157.26,92.98,1157.26,92.99,1157.26,93z M1154.91,88.4c0,0.01,0,0.01,0,0.02c1.64,0,3.28-0.06,4.92,0.02
		c2.17,0.1,2.46-0.94,1.85-2.7c-0.89-2.55-3.78-4.54-6.77-4.61c-3.09-0.08-6.02,1.91-7.01,4.66c-0.63,1.75-0.02,2.59,1.79,2.61
		C1151.43,88.42,1153.17,88.4,1154.91,88.4z"/>
	<path class="st0" d="M1176.48,53.26c-7.48-0.02-12.05-4.41-12.59-13.2c-0.7-11.25,6.26-18.05,17.2-15.25
		c3.23,0.83,5.19,3.18,6.53,6.1c0.65,1.41,0.43,2.42-1.3,2.74c-2.36,0.44-4.54,1.59-6.3-1.69c-1.59-2.97-6.56-1.96-7.91,1.52
		c-1.37,3.51-1.25,7.17,0.24,10.68c0.79,1.87,2.36,2.66,4.41,2.67c1.95,0.01,3.27-0.76,4.16-2.51c1.08-2.11,5.48-2.78,7.1-1.17
		c0.8,0.79,0.27,1.63,0.02,2.41C1186.39,50.7,1182.51,53.27,1176.48,53.26z"/>
	<path class="st0" d="M211.77,38.83c-0.26,4.29-0.94,9.39-5.7,12.83c-6.21,4.5-15.25,2.41-18.52-4.48
		c-2.78-5.86-2.77-11.95-0.14-17.87c2.07-4.67,5.88-6.83,11.03-6.96c5.35-0.13,9.03,2.33,11.44,6.84
		C211.31,31.87,211.81,34.82,211.77,38.83z M190.9,38.08c-0.05,2.92,0.23,5.76,2,8.23c2.93,4.09,8.57,4.12,11.52,0.06
		c2.86-3.93,2.88-12.5,0.04-16.44c-3.01-4.18-8.77-4.1-11.69,0.18C191.13,32.52,190.85,35.27,190.9,38.08z"/>
	<path class="st0" d="M1120.28,42.5c1.89-5.38,3.55-10.17,5.24-14.94c0.87-2.46,4.81-3.86,7.13-2.59c0.94,0.52,0.74,1.27,0.47,1.99
		c-2.97,8.02-5.94,16.05-8.96,24.05c-0.89,2.36-3.04,1.49-4.76,1.65c-1.53,0.14-2.52-0.44-3.09-1.96
		c-2.92-7.84-5.9-15.65-8.89-23.46c-0.71-1.84-0.02-2.38,1.78-2.48c4.69-0.27,4.79-0.26,6.38,4.25
		C1117.07,33.26,1118.54,37.52,1120.28,42.5z"/>
	<path class="st0" d="M1096.31,91.5c0.02-5.49,1.38-10.38,6.76-13.01c5.06-2.48,10.1-2.21,14.75,1.15
		c5.04,3.63,6.66,13.05,3.43,19.52c-2.74,5.48-9.75,8.12-16.18,6.09C1099.39,103.45,1096.33,98.64,1096.31,91.5z M1108.96,81.41
		c-2.87-0.24-5.18,1.41-6.33,4.33c-1.52,3.87-1.58,7.91,0.17,11.76c1.33,2.92,3.8,4.22,7,4.11c3.2-0.11,5.51-1.6,6.73-4.56
		c0.82-1.97,1.14-4.09,1.06-6.2C1117.37,84.7,1114.43,81.38,1108.96,81.41z"/>
	<path class="st0" d="M709.09,80.36c2.6-2.49,5.03-3.63,8.02-3.68c7.01-0.12,10.35,3.04,10.41,10.08c0.04,5,0.01,10,0.02,15
		c0,1.79,0.13,3.47-2.56,3.5c-2.86,0.04-2.73-1.75-2.73-3.65c0-4.71,0.03-9.43-0.02-14.14c-0.04-4-1.62-6.1-4.73-6.47
		c-3.5-0.42-6.64,1.77-7.48,5.34c-0.95,4.08-0.29,8.24-0.46,12.36c-0.05,1.34-0.06,2.69-0.01,4.04c0.07,1.9-0.89,2.48-2.67,2.5
		c-1.88,0.02-2.61-0.8-2.6-2.6c0.02-7.41-0.01-14.81,0.01-22.22c0-1.43-0.15-2.97,2.01-3.16C708.27,77.11,709.15,77.98,709.09,80.36
		z"/>
	<path class="st0" d="M645.53,39.29c0-1.92-0.01-3.84,0-5.76c0.01-1.65,0.19-3.24-2.19-3.64c-1.47-0.25-1.14-1.81-1.15-2.92
		c-0.01-1.13-0.15-2.5,1.4-2.77c1.82-0.32,1.9-1.56,1.96-2.98c0.09-2.3,3.65-5.91,5.91-6.17c0.99-0.11,1.16,0.47,1.19,1.19
		c0.04,1.15,0.07,2.3,0.03,3.45c-0.08,2.37-0.33,4.6,3.28,4.63c1.86,0.02,1.28,2.03,1.35,3.28c0.07,1.24-0.2,2.48-1.77,2.41
		c-2.67-0.13-2.94,1.41-2.88,3.49c0.09,3.07,0.05,6.14,0.03,9.22c-0.01,1.81,0.55,3.09,2.65,2.83c2.6-0.32,2,1.76,2.35,3.06
		c0.4,1.47,0.03,2.73-1.68,3.08c-5.1,1.06-10.88,0.63-10.47-7.23c0.09-1.72,0.01-3.46,0.01-5.18
		C645.54,39.29,645.53,39.29,645.53,39.29z"/>
	<path class="st0" d="M711.58,52.09c-5.51,0-7.73-2-7.92-6.77c-0.16-4.04-0.07-8.08-0.07-12.13c0-1.49,0.06-2.84-1.96-3.26
		c-1.61-0.34-1.35-1.91-1.37-3.12c-0.02-1.16,0-2.44,1.58-2.64c1.56-0.21,1.68-1.26,1.75-2.5c0.14-2.62,3.25-6.01,5.83-6.54
		c0.99-0.21,1.23,0.29,1.26,1.05c0.05,1.25,0.08,2.5,0.04,3.75c-0.08,2.31-0.23,4.41,3.22,4.39c1.92-0.01,1.36,1.98,1.43,3.23
		c0.07,1.22-0.13,2.53-1.71,2.46c-2.86-0.12-3.01,1.59-2.94,3.72c0.09,2.98,0.03,5.97,0.05,8.95c0.02,1.75,0.57,3.13,2.68,2.87
		c1.63-0.2,2.4,0.42,2.39,2.01c-0.01,1.56,0.68,3.45-1.6,4.08C713.14,51.95,711.97,52.03,711.58,52.09z"/>
	<path class="st0" d="M1083.46,27.31c2.51-2.86,5.04-3.77,8.16-2.58c1.29,0.49,1.85,1.28,1.36,2.67c-0.8,2.28-0.78,5.29-4.83,3.96
		c-1.7-0.56-3.07,0.81-3.66,2.56c-0.56,1.65-0.79,3.35-0.79,5.1c0.01,3.26-0.01,6.53-0.03,9.79c-0.02,3.44-3.33,5.29-6.49,3.65
		c-0.94-0.49-1.01-1.36-1.01-2.22c-0.02-7.68-0.02-15.36-0.01-23.03c0-1.25,0.31-2.46,1.86-2.35
		C1080.03,24.98,1082.7,23.54,1083.46,27.31z"/>
	<path class="st0" d="M275.48,78.64c1.98-2.91,4.55-3.54,7.53-2.86c1.69,0.39,2.51,1.31,1.82,3.14c-0.8,2.14-0.84,4.77-4.63,3.5
		c-2.1-0.7-3.39,1.31-3.93,3.36c-0.96,3.69-0.58,7.46-0.66,11.19c-0.02,1.06,0.05,2.12-0.02,3.17c-0.07,1.1,0.39,2.58-0.99,3.04
		c-1.74,0.58-3.69,0.67-5.38-0.11c-1.08-0.5-0.73-1.88-0.74-2.91c-0.02-6.73-0.05-13.46,0.02-20.19c0.02-1.38-0.76-3.45,1.56-3.72
		C272.1,76.02,274.63,75.17,275.48,78.64z"/>
	<path class="st0" d="M1135.72,105.74c-4.56-0.09-6.64-2.07-6.79-6.68c-0.16-4.9-0.07-9.81-0.06-14.72c0-1.45-0.12-2.71-2-2.88
		c-1.07-0.1-1.39-0.9-1.42-1.86c-0.02-0.92,0.14-1.89,1.19-2.02c2.36-0.3,2.38-1.96,2.2-3.63c-0.27-2.56,1.1-3.85,3.19-4.89
		c1.62-0.81,2.11-0.25,2.12,1.31c0,1.06,0.06,2.12,0,3.17c-0.12,2.2-0.01,4.11,3.04,3.97c1.17-0.05,1.62,0.84,1.62,1.96
		c0,1.28-0.56,2.09-1.88,2.01c-2.49-0.15-2.82,1.29-2.79,3.28c0.07,4.33,0.03,8.66,0.04,12.99c0,1.57,0.37,3.05,2.22,3.15
		c2.1,0.12,3.11,1.13,2.84,3.09C1138.92,106.21,1136.93,105.49,1135.72,105.74z"/>
	<path class="st0" d="M735.47,91.98c0-2.31-0.01-4.61,0-6.92c0.01-1.75,0.23-3.54-2.3-3.86c-1.06-0.13-1.16-1.14-1.12-2.05
		c0.03-0.82,0.23-1.66,1.17-1.73c2.67-0.2,2.38-2.14,2.22-3.81c-0.24-2.44,0.68-4,2.89-5.04c1.35-0.63,2.01-0.47,2.02,1.1
		c0.01,0.87,0.02,1.73,0.02,2.6c-0.02,2.58-0.57,5.47,3.65,5.15c1.06-0.08,1.34,0.93,1.36,1.87c0.01,1.11-0.5,2.05-1.63,1.99
		c-3.53-0.19-3.47,2.04-3.4,4.52c0.1,3.65,0,7.31,0.07,10.96c0.04,2.25,0.47,4.25,3.45,4.31c1.78,0.04,1.67,1.59,1.78,2.8
		c0.14,1.49-1.04,1.65-2.1,1.82c-5.05,0.81-7.97-1.63-8.06-6.76c-0.04-2.31-0.01-4.61-0.01-6.92
		C735.48,91.98,735.48,91.98,735.47,91.98z"/>
	<path class="st0" d="M295,26.19c2.13-3.08,4.5-4.46,7.74-3.55c1.64,0.46,2.83,1.25,2.17,3.31c-0.53,1.67-0.9,3.05-3.33,2.21
		c-2.31-0.79-4.45,0.64-5.37,3.16c-0.66,1.82-0.89,3.73-0.88,5.67c0.02,4.62-0.02,9.23-0.01,13.85c0.01,1.7-0.78,2.38-2.48,2.41
		c-1.75,0.02-2.77-0.51-2.77-2.42c0.02-8.46,0-16.93,0.01-25.39c0-1.24,0.28-2.21,1.85-2.42C294.04,22.73,294.86,23.82,295,26.19z"
		/>
	<path class="st0" d="M1103.37,38.99c0,3.65-0.08,7.3,0.03,10.94c0.08,2.76-1.65,2.79-3.63,2.74c-1.93-0.05-3.98,0.34-3.95-2.71
		c0.08-7.49,0.08-14.98-0.01-22.46c-0.03-2.75,1.65-2.8,3.63-2.75c1.93,0.05,4.02-0.33,3.94,2.72
		C1103.3,31.31,1103.37,35.15,1103.37,38.99z"/>
	<path class="st0" d="M660.91,80.76c2.6-3.95,5.41-4.75,8.87-3.59c1.27,0.42,2.09,1.1,1.49,2.54c-0.48,1.17-0.54,2.61-2.53,2.56
		c-5.53-0.15-7.08,1.32-7.28,6.96c-0.15,4.22-0.08,8.45-0.05,12.68c0.02,1.92-0.16,3.38-2.73,3.35c-2.41-0.03-2.59-1.42-2.58-3.21
		c0.02-7.2,0-14.41,0.02-21.61c0-1.42-0.17-2.97,2-3.16C660.07,77.11,660.99,77.95,660.91,80.76z"/>
	<path class="st0" d="M1200.3,38.46c0,3.85-0.08,7.7,0.03,11.55c0.07,2.57-1.48,2.74-3.4,2.67c-1.82-0.07-3.8,0.36-3.78-2.56
		c0.07-7.6,0.06-15.21,0.01-22.81c-0.02-2.93,2.02-2.45,3.82-2.54c1.96-0.09,3.43,0.2,3.36,2.72
		C1200.22,31.14,1200.3,34.8,1200.3,38.46z"/>
	<path class="st0" d="M1080.06,91.02c0-3.55-0.02-7.1,0.01-10.65c0.01-1.11-0.26-2.48,1.33-2.8c1.23-0.25,2.58-0.41,3.23,1.09
		c0.79,1.84,1.45,0.44,2.03-0.09c2.03-1.84,4.31-1.93,6.74-1.06c1.19,0.42,2.15,1.05,1.56,2.53c-0.48,1.2-0.7,2.59-2.63,2.47
		c-5.13-0.31-6.77,1.15-6.93,6.25c-0.14,4.51-0.08,9.02-0.08,13.53c0,1.74-0.35,2.94-2.54,2.96c-2.25,0.03-2.79-1.04-2.75-3.01
		C1080.12,98.51,1080.07,94.76,1080.06,91.02z"/>
	<path class="st0" d="M668.92,37.6c0,3.65-0.1,7.3,0.04,10.94c0.1,2.55-1.19,3.09-3.38,3c-1.99-0.08-3.88,0.18-3.83-2.83
		c0.12-7.29,0.1-14.59,0.01-21.88c-0.04-2.81,1.73-2.67,3.65-2.71c2.04-0.04,3.64,0.14,3.54,2.83
		C668.83,30.49,668.92,34.05,668.92,37.6z"/>
	<path class="st0" d="M754.78,91.4c0,3.65-0.03,7.3,0.01,10.95c0.02,1.8-0.43,2.91-2.57,2.91c-2.02,0-2.75-0.84-2.74-2.76
		c0.04-7.49,0.04-14.98,0-22.47c-0.01-1.9,0.7-2.79,2.73-2.78c2.13,0.01,2.6,1.11,2.57,2.92C754.75,83.91,754.78,87.65,754.78,91.4z
		"/>
	<path class="st0" d="M1208.45,91.44c0,3.74-0.04,7.48,0.01,11.22c0.02,1.81-0.71,2.59-2.57,2.59c-1.79,0-2.7-0.62-2.7-2.48
		c0.02-7.57,0.02-15.15,0-22.72c0-2,1.03-2.66,2.92-2.64c2,0.03,2.37,1.16,2.36,2.82C1208.42,83.96,1208.45,87.7,1208.45,91.44z"/>
	<path class="st0" d="M782.45,14.1c1.76,0.15,3.33,0.94,4.95,1.55c1.44,0.55,2.79,0.77,3.84-0.78c0.7-1.05,1.78-1.19,2.81-0.63
		c1.07,0.58,0.76,1.66,0.58,2.59c-0.59,3.09-2.88,4.54-5.98,3.76c-1.12-0.28-2.17-0.8-3.27-1.15c-1.55-0.5-3.11-1.25-4.3,0.75
		c-0.51,0.86-1.51,0.76-2.36,0.44c-0.9-0.34-0.86-1.18-0.86-1.95C777.84,16.14,779.92,14.08,782.45,14.1z"/>
	<path class="st0" d="M1099.59,21.37c-2.68,0.49-3.92-0.48-3.8-3.35c0.15-3.4,0.29-3.68,3.82-3.67c3.52,0,3.65,0.27,3.8,3.69
		C1103.55,20.95,1102.25,21.85,1099.59,21.37z"/>
	<path class="st0" d="M1200.23,17.89c0.61,2.98-0.94,3.6-3.58,3.61c-2.59,0.01-3.58-0.8-3.57-3.48c0.01-2.65,0.69-3.82,3.58-3.75
		C1199.32,14.34,1200.84,14.94,1200.23,17.89z"/>
	<path class="st0" d="M665.29,13.86c3.07-0.64,3.67,0.91,3.71,3.52c0.04,2.64-0.92,3.5-3.53,3.51c-2.65,0-3.83-0.7-3.76-3.57
		C661.77,14.65,662.43,13.19,665.29,13.86z"/>
	<path class="st0" d="M21.94,57.31c-0.04-3.24,1.43-5.35,4.07-6.67c2.92-1.46,5.72-0.92,8.1,1.11c3.01,2.56,5.97,5.2,8.71,8.03
		c1.87,1.94,3.08,1.91,4.83-0.14c7.01-8.2,14.17-16.28,21.23-24.44c4.11-4.75,10.3-4.8,13.13-0.02c1.68,2.84,1.4,5.94-1.06,8.79
		c-7.57,8.74-15.2,17.43-22.81,26.13c-2.03,2.32-4.06,4.64-6.08,6.97c-3.32,3.8-7.37,4.35-11.18,0.99
		c-5.78-5.1-11.33-10.47-16.96-15.74C22.42,60.92,21.82,59.13,21.94,57.31z"/>
	<path class="st0" d="M495.29,45.87c-2.86-2-5.11-3.46-7.22-5.09c-1.55-1.19-2.8-1.24-4.37,0.02c-2.08,1.67-4.35,3.1-6.98,4.95
		c-0.06-3.1,1.09-5.33,1.96-7.54c0.94-2.38,0.73-3.94-1.66-5.19c-1.53-0.8-2.89-1.92-4.27-2.98c-0.63-0.48-1.88-0.72-1.51-1.79
		c0.29-0.83,1.36-0.49,2.09-0.51c2.03-0.04,4.06-0.1,6.09,0c1.95,0.1,3.01-0.7,3.59-2.56c0.77-2.45,1.35-4.99,2.82-7.58
		c1.69,2.28,2.13,4.75,2.8,7.06c0.68,2.38,2,3.2,4.41,3.11c2.47-0.09,4.99-0.35,7.85,0.32c-1.63,2.26-3.83,3.43-5.85,4.69
		c-2.24,1.39-3.01,2.83-1.88,5.42C494.09,40.36,495.02,42.6,495.29,45.87z"/>
	<path class="st0" d="M946.78,87.51c0.38-2.36-0.15-4.99-2.11-7.28c-0.49-0.57-0.77-1.33-1.09-2.03c-1.29-2.85-1.9-5.84,0.29-8.43
		c2.32-2.74,5.63-2.78,8.84-2c3.72,0.89,5.44,4.03,4.54,7.74c-0.46,1.91-1.28,3.74-2.64,5.06c-2.31,2.24-2.84,4.86-2.56,7.86
		c0.11,1.14-0.03,2.3,0.01,3.46c0.05,1.77-0.92,2.3-2.54,2.33c-1.76,0.04-2.79-0.53-2.74-2.44
		C946.8,90.54,946.78,89.29,946.78,87.51z"/>
</g>
</svg>
